<?xml version="1.0" encoding="UTF-8"?>
<svg class="icon-defaultSize" viewBox="0 0 17 17" fill="none" xmlns="http://www.w3.org/2000/svg">
  <path fill-rule="evenodd" clip-rule="evenodd" d="M4.11112 2H12.1111C13.5839 2 14.7778 3.19391 14.7778 4.66667V12.6667C14.7778 14.1394 13.5839 15.3333 12.1111 15.3333H4.11112C2.63837 15.3333 1.44446 14.1394 1.44446 12.6667V4.66667C1.44446 3.19391 2.63837 2 4.11112 2ZM13.2472 13.8028C13.5485 13.5014 13.7178 13.0928 13.7178 12.6667V4.66667C13.7178 4.24055 13.5485 3.83189 13.2472 3.53058C12.9459 3.22927 12.5372 3.06 12.1111 3.06H4.11113C3.22379 3.06 2.50446 3.77933 2.50446 4.66667V12.6667C2.50446 13.0928 2.67373 13.5014 2.97504 13.8028C3.27635 14.1041 3.68501 14.2733 4.11113 14.2733H12.1111C12.5372 14.2733 12.9459 14.1041 13.2472 13.8028Z" fill="#28B0FE" />
  <path d="M10.7778 8.16667H8.61112V6C8.61112 5.72386 8.38727 5.5 8.11112 5.5C7.83498 5.5 7.61112 5.72386 7.61112 6V8.16667H5.44446C5.16832 8.16667 4.94446 8.39052 4.94446 8.66667C4.94446 8.94281 5.16832 9.16667 5.44446 9.16667H7.61112V11.3333C7.61112 11.6095 7.83498 11.8333 8.11112 11.8333C8.38727 11.8333 8.61112 11.6095 8.61112 11.3333V9.16667H10.7778C11.0539 9.16667 11.2778 8.94281 11.2778 8.66667C11.2778 8.39052 11.0539 8.16667 10.7778 8.16667Z" fill="#28B0FE" />
</svg>