<svg width="29" height="36" viewBox="0 0 29 36" fill="none" xmlns="http://www.w3.org/2000/svg">
<g clip-path="url(#clip0_887_11313)">
<path d="M27.5073 5.69973C27.5073 5.69973 27.4362 5.69973 27.5073 5.69973C27.4362 5.77473 27.4362 5.77473 27.4362 5.84973C27.3651 5.77473 27.4362 5.77473 27.5073 5.69973C27.4362 5.77473 27.4362 5.77473 27.3651 5.84973C26.8675 6.37473 24.9484 8.54973 18.3381 15.9747C18.3381 15.9747 18.3381 15.9747 18.3381 15.8997C18.3381 15.8247 18.3381 15.7497 18.3381 15.7497C18.3381 15.1497 18.3381 12.5997 18.3381 3.97473C19.4754 3.44973 20.7548 2.99973 22.1053 2.99973C23.3847 2.92473 24.522 3.22473 25.5171 3.82473C26.2989 4.19973 26.9386 4.87473 27.5073 5.69973Z" fill="url(#paint0_linear_887_11313)"/>
<path d="M20.755 0.824714L22.9584 2.17471C21.6079 2.09971 19.8309 2.39971 17.9118 3.37471L13.8604 0.899714C16.4903 -0.300286 18.9069 -0.300286 20.755 0.824714Z" fill="url(#paint1_linear_887_11313)"/>
<path d="M17.5564 4.04966C17.5564 12.8997 17.5564 15.5247 17.5564 16.1997C17.5564 16.1997 17.5564 16.1997 17.5564 16.2747V16.3497V16.4247V16.4997C17.4853 16.4247 16.2059 15.6747 16.277 15.6747V5.17466C16.277 5.02466 16.1348 4.87466 16.0637 4.79966L13.4338 3.22466V1.64966L17.5564 4.04966Z" fill="url(#paint2_linear_887_11313)"/>
<path d="M3.48284 32.2497C1.20833 30.8997 0 27.9747 0 24.1497C0 16.5747 4.76226 7.12468 11.0882 2.54968L15.2108 5.09968C13.4338 6.44968 11.3015 8.62468 9.45343 11.3247C7.03676 14.9247 5.11765 19.1997 4.40686 23.6247C3.83824 26.6997 4.05147 29.2497 4.6201 31.1247C4.90441 32.0247 5.18873 32.7747 5.54412 33.3747C5.54412 33.4497 5.6152 33.4497 5.6152 33.5247L3.48284 32.2497Z" fill="url(#paint3_linear_887_11313)"/>
<path d="M24.5221 26.2497C22.3187 29.6997 19.6177 32.5497 16.7746 34.2747C11.9413 37.2747 6.96576 36.5247 5.33096 30.9747C5.33096 30.9747 5.33096 30.9747 5.33096 30.8997C4.69125 28.5747 4.76233 25.9497 5.1888 23.4747C5.89959 19.3497 7.74763 15.1497 10.0221 11.6997C11.5859 9.37466 13.3628 7.34966 15.4952 5.77466C15.4952 5.84966 15.5663 20.6247 15.5663 20.5497C15.5663 20.6997 15.6373 20.8497 15.7795 20.9247L24.5221 26.2497Z" fill="url(#paint4_linear_887_11313)"/>
<path d="M18.6224 18.2997L16.2769 16.8747V16.4997L17.7695 17.3997C17.8406 17.4747 18.1249 17.4747 18.196 17.3247L18.2671 17.2497C18.7646 16.7247 20.6837 14.5497 27.2229 7.19971L28.0759 7.72471C20.6126 16.1247 19.0489 17.8497 18.8357 18.1497C18.7646 18.2247 18.6935 18.2247 18.6224 18.2997Z" fill="url(#paint5_linear_887_11313)"/>
<path d="M26.299 22.9498L19.2622 18.7498C19.3333 18.6748 19.4044 18.5998 19.4044 18.5998C19.8308 18.1498 21.6789 16.0498 28.5735 8.24976C28.8578 9.29976 29 10.5748 29 11.8498C29 15.2998 28.0759 19.1998 26.299 22.9498Z" fill="url(#paint6_linear_887_11313)"/>
</g>
<defs>
<linearGradient id="paint0_linear_887_11313" x1="19.7423" y1="5.00032" x2="27.3435" y2="7.41361" gradientUnits="userSpaceOnUse">
<stop stop-color="#73C7FF"/>
<stop offset="1" stop-color="#417FA8"/>
</linearGradient>
<linearGradient id="paint1_linear_887_11313" x1="15.2536" y1="0.514476" x2="18.6273" y2="4.59226" gradientUnits="userSpaceOnUse">
<stop stop-color="#73C7FF"/>
<stop offset="1" stop-color="#417FA8"/>
</linearGradient>
<linearGradient id="paint2_linear_887_11313" x1="14.0652" y1="3.95031" x2="17.7695" y2="4.41273" gradientUnits="userSpaceOnUse">
<stop stop-color="#73C7FF"/>
<stop offset="1" stop-color="#417FA8"/>
</linearGradient>
<linearGradient id="paint3_linear_887_11313" x1="2.3294" y1="7.34852" x2="12.0231" y2="8.7313" gradientUnits="userSpaceOnUse">
<stop stop-color="#73C7FF"/>
<stop offset="1" stop-color="#417FA8"/>
</linearGradient>
<linearGradient id="paint4_linear_887_11313" x1="7.87076" y1="10.4593" x2="24.4008" y2="15.2926" gradientUnits="userSpaceOnUse">
<stop stop-color="#73C7FF"/>
<stop offset="1" stop-color="#417FA8"/>
</linearGradient>
<linearGradient id="paint5_linear_887_11313" x1="18.0838" y1="8.91939" x2="26.8487" y2="13.1088" gradientUnits="userSpaceOnUse">
<stop stop-color="#73C7FF"/>
<stop offset="1" stop-color="#417FA8"/>
</linearGradient>
<linearGradient id="paint6_linear_887_11313" x1="20.7535" y1="10.5272" x2="28.9156" y2="12.9584" gradientUnits="userSpaceOnUse">
<stop stop-color="#73C7FF"/>
<stop offset="1" stop-color="#417FA8"/>
</linearGradient>
<clipPath id="clip0_887_11313">
<rect width="29" height="36" fill="white" transform="translate(0 -0.000244141)"/>
</clipPath>
</defs>
</svg>
