<?xml version="1.0" encoding="UTF-8"?>
<svg class="icon-bigSize" viewBox="0 0 17 17" fill="none" xmlns="http://www.w3.org/2000/svg">
  <path fill-rule="evenodd" clip-rule="evenodd" d="M8.49348 1.47656H11.2135C12.9624 1.47656 14.3802 2.89433 14.3802 4.64323V9.52323C14.3924 10.8497 13.575 12.0426 12.3335 12.5099C12.2057 13.8856 11.0484 14.9358 9.66682 14.9299H6.33349C4.58458 14.9299 3.16682 13.5121 3.16682 11.7632V6.28323C3.15702 4.92689 4.16691 3.77929 5.51349 3.61656C5.95034 2.34186 7.14602 1.48321 8.49348 1.47656ZM6.30682 13.9032H9.64015C10.3854 13.9038 11.0396 13.4076 11.2402 12.6899H8.49348C6.74458 12.6899 5.32682 11.2721 5.32682 9.52323V4.6699C4.62439 4.87886 4.1421 5.52371 4.14015 6.25656V11.7366C4.14015 12.9332 5.1102 13.9032 6.30682 13.9032ZM13.3802 9.52323C13.3802 10.7198 12.4101 11.6899 11.2135 11.6899H8.49349C7.29839 11.6862 6.33048 10.7183 6.32682 9.52323V4.64323C6.33048 3.44813 7.29839 2.48022 8.49349 2.47656H11.2135C12.4101 2.47656 13.3802 3.44661 13.3802 4.64323V9.52323ZM11.0268 5.57656H7.75349C7.50312 5.57656 7.30015 5.3736 7.30015 5.12323C7.30015 4.87286 7.50312 4.6699 7.75349 4.6699H11.0268C11.2772 4.6699 11.4802 4.87286 11.4802 5.12323C11.4802 5.3736 11.2772 5.57656 11.0268 5.57656ZM7.77349 8.58323H10.1068C10.3572 8.58323 10.5602 8.78619 10.5602 9.03656C10.5602 9.28693 10.3572 9.4899 10.1068 9.4899H7.77349C7.52312 9.4899 7.32015 9.28693 7.32015 9.03656C7.32015 8.78619 7.52312 8.58323 7.77349 8.58323ZM11.9602 6.62323H7.75349C7.57716 6.60189 7.4043 6.68396 7.30939 6.83409C7.21448 6.98422 7.21448 7.17557 7.30939 7.3257C7.4043 7.47583 7.57716 7.55791 7.75349 7.53656H11.9602C12.1911 7.5086 12.3649 7.31257 12.3649 7.0799C12.3649 6.84722 12.1911 6.65119 11.9602 6.62323Z" fill="#28B0FE" />
</svg>