<?xml version="1.0" encoding="UTF-8"?>
<svg viewBox="0 0 17 17" fill="none" xmlns="http://www.w3.org/2000/svg">
  <path fill-rule="evenodd" clip-rule="evenodd" d="M9.66442 2.14667L14.3311 6.81333C14.4134 6.91187 14.4541 7.03863 14.4444 7.16667V10.74C14.4446 12.4672 13.0581 13.8745 11.3311 13.9C10.8895 14.989 9.83942 15.7084 8.66442 15.7267H5.03108C3.42101 15.7267 2.11476 14.4234 2.11108 12.8133V6.76C2.11475 5.14885 3.41993 3.84367 5.03108 3.84H5.31775C5.83062 2.72442 6.94327 2.00691 8.17108 2H9.31108C9.44365 2.00012 9.57074 2.05287 9.66442 2.14667ZM12.7511 6.62L9.90442 3.77333V5.84C9.90804 6.26927 10.2551 6.61638 10.6844 6.62H12.7511ZM8.66442 14.7267H5.03108C3.9733 14.7267 3.11476 13.8711 3.11108 12.8133V6.76C3.11108 5.69961 3.9707 4.84 5.03108 4.84V5.18667V10.74C5.03108 12.4889 6.44885 13.9067 8.19775 13.9067H10.2644C9.89992 14.4282 9.30068 14.7354 8.66442 14.7267ZM8.17108 12.9067H11.3044C12.501 12.9067 13.4711 11.9366 13.4711 10.74V7.72H10.6511C9.61431 7.71634 8.77474 6.87678 8.77108 5.84V3H8.17108C7.59352 3.00176 7.04041 3.23335 6.63389 3.64362C6.22737 4.05389 6.00087 4.60911 6.00442 5.18667V10.74C6.00808 11.9351 6.97599 12.903 8.17108 12.9067Z" fill="#28B0FE" />
</svg>