<?xml version="1.0" encoding="UTF-8"?>
<svg class="icon-defaultSize defamt" viewBox="0 0 17 17" fill="none" xmlns="http://www.w3.org/2000/svg">
  <path fill-rule="evenodd" clip-rule="evenodd" d="M4.16642 1.76172H12.1664C13.6392 1.76172 14.8331 2.95563 14.8331 4.42839V12.4284C14.8331 13.9011 13.6392 15.0951 12.1664 15.0951H4.16642C2.69366 15.0951 1.49976 13.9011 1.49976 12.4284V4.42839C1.49976 2.95563 2.69366 1.76172 4.16642 1.76172ZM13.3449 13.6069C13.6575 13.2943 13.8331 12.8704 13.8331 12.4284V4.42839C13.8331 3.98636 13.6575 3.56243 13.3449 3.24987C13.0324 2.93731 12.6084 2.76172 12.1664 2.76172H4.16642C3.24595 2.76172 2.49976 3.50791 2.49976 4.42839V12.4284C2.49976 12.8704 2.67535 13.2943 2.98791 13.6069C3.30047 13.9195 3.7244 14.0951 4.16642 14.0951H12.1664C12.6084 14.0951 13.0324 13.9195 13.3449 13.6069Z" fill="#28B0FE" />
  <path d="M10.6263 6.24779C10.4311 6.05282 10.1149 6.05282 9.91965 6.24779L8.30631 7.86112L6.69298 6.24779C6.49597 6.06422 6.18897 6.06963 5.99857 6.26004C5.80816 6.45045 5.80274 6.75745 5.98631 6.95446L7.59965 8.56779L5.98631 10.1811C5.79135 10.3763 5.79135 10.6926 5.98631 10.8878C6.18153 11.0828 6.49777 11.0828 6.69298 10.8878L8.30631 9.27446L9.91965 10.8878C10.0133 10.9816 10.1404 11.0343 10.273 11.0345C10.405 11.0316 10.5311 10.9792 10.6263 10.8878C10.8213 10.6926 10.8213 10.3763 10.6263 10.1811L9.01298 8.56779L10.6263 6.95446C10.8213 6.75924 10.8213 6.443 10.6263 6.24779V6.24779Z" fill="#28B0FE" />
</svg>