<?xml version="1.0" encoding="UTF-8"?>
<svg viewBox="0 0 16 16" fill="none" xmlns="http://www.w3.org/2000/svg">
  <path d="M12.5266 4.6661C12.2358 4.6661 12 4.90189 12 5.19276V11.0861C12 12.3269 10.9941 13.3328 9.75329 13.3328H5.96663C4.72583 13.3328 3.71996 12.3269 3.71996 11.0861V5.19276C3.71996 4.90189 3.48416 4.6661 3.19329 4.6661C2.90242 4.6661 2.66663 4.90189 2.66663 5.19276V11.0861C2.68491 12.914 4.17195 14.3862 5.99996 14.3861H9.78663C11.6016 14.368 13.0686 12.9011 13.0866 11.0861V5.19276C13.0869 5.04711 13.0269 4.90784 12.9208 4.80805C12.8147 4.70827 12.672 4.65688 12.5266 4.6661Z" fill="#28B0FE" />
  <path fill-rule="evenodd" clip-rule="evenodd" d="M12.5266 3.71967H3.19329C2.90242 3.71967 2.66663 3.48388 2.66663 3.19301C2.66663 2.90214 2.90242 2.66634 3.19329 2.66634H4.95996L5.74663 1.81301C6.04734 1.50728 6.4578 1.33446 6.88663 1.33301H8.83329C9.25587 1.333 9.66115 1.50087 9.95996 1.79967L10.76 2.66634H12.5266C12.8175 2.66634 13.0533 2.90214 13.0533 3.19301C13.0533 3.48388 12.8175 3.71967 12.5266 3.71967ZM8.83329 2.38634H6.88663C6.75335 2.38639 6.62492 2.43633 6.52663 2.52634L6.39996 2.65967H9.31996L9.19329 2.52634C9.09572 2.43518 8.96682 2.38505 8.83329 2.38634Z" fill="#28B0FE" />
  <path d="M5.35999 5.85937V7.85937C5.35999 8.13552 5.58384 8.35937 5.85999 8.35937C6.13613 8.35937 6.35999 8.13552 6.35999 7.85937V5.85937C6.35999 5.58323 6.13613 5.35938 5.85999 5.35938C5.58384 5.35938 5.35999 5.58323 5.35999 5.85937Z" fill="#28B0FE" />
  <path d="M7.35999 5.85938V11.1927C7.35999 11.4689 7.58384 11.6927 7.85999 11.6927C8.13613 11.6927 8.35999 11.4689 8.35999 11.1927V5.85938C8.35999 5.58323 8.13613 5.35938 7.85999 5.35938C7.58384 5.35938 7.35999 5.58323 7.35999 5.85938Z" fill="#28B0FE" />
  <path d="M9.35999 5.85937V7.85937C9.35999 8.13552 9.58384 8.35937 9.85999 8.35937C10.1361 8.35937 10.36 8.13552 10.36 7.85937V5.85937C10.36 5.58323 10.1361 5.35938 9.85999 5.35938C9.58384 5.35938 9.35999 5.58323 9.35999 5.85937Z" fill="#28B0FE" />
</svg>