<?xml version="1.0" encoding="UTF-8"?>
<svg class="icon-defaultSize" viewBox="0 0 17 17" fill="none" xmlns="http://www.w3.org/2000/svg">
  <path fill-rule="evenodd" clip-rule="evenodd" d="M5.52654 10.8453L6.01321 8.57198C6.08406 8.25607 6.24365 7.96696 6.47321 7.73865L10.9199 3.33198C11.3708 2.87263 11.983 2.60717 12.6265 2.59198C13.1119 2.58503 13.5799 2.77223 13.9265 3.11198C14.684 4.00696 14.5862 5.34346 13.7065 6.11865L9.25988 10.5653C9.03157 10.7949 8.74246 10.9545 8.42654 11.0253L6.15321 11.512H6.02654C5.86035 11.5183 5.70162 11.4427 5.60183 11.3097C5.50204 11.1766 5.4739 11.0031 5.52654 10.8453ZM7.17988 8.45198C7.08647 8.54251 7.02158 8.65837 6.99321 8.78532L6.66654 10.3387L8.21988 10.0053C8.34682 9.97695 8.46269 9.91206 8.55321 9.81865L12.9999 5.37198C13.487 4.982 13.5837 4.27897 13.2199 3.77198C13.0606 3.61979 12.8467 3.5381 12.6265 3.54532C12.2469 3.56056 11.8882 3.72318 11.6265 3.99865L7.17988 8.45198Z" fill="#28B0FE" />
  <path d="M13.6066 7.9513C13.332 7.95489 13.1102 8.17666 13.1066 8.4513V12.2446C13.1156 12.7808 12.9088 13.2981 12.5328 13.6804C12.1567 14.0628 11.6429 14.278 11.1066 14.278H4.7533C3.64488 14.2562 2.75671 13.3533 2.7533 12.2446V5.91797C2.7715 4.80803 3.67655 3.91782 4.78664 3.91797H8.57997C8.85611 3.91797 9.07997 3.69411 9.07997 3.41797C9.07997 3.14183 8.85611 2.91797 8.57997 2.91797H4.7533C3.09097 2.91787 1.73824 4.25574 1.71997 5.91797V12.2446C1.71997 13.9199 3.07804 15.278 4.7533 15.278H11.08C12.7526 15.2743 14.1066 13.9173 14.1066 12.2446V8.4513C14.103 8.17666 13.8813 7.95489 13.6066 7.9513Z" fill="#28B0FE" />
</svg>