<?xml version="1.0" encoding="UTF-8"?>
<svg viewBox="0 0 21 20" fill="none" xmlns="http://www.w3.org/2000/svg">
  <path fill-rule="evenodd" clip-rule="evenodd" d="M10.5554 17.5C14.6976 17.5 18.0554 14.1421 18.0554 10C18.0554 5.85786 14.6976 2.5 10.5554 2.5C6.41328 2.5 3.05542 5.85786 3.05542 10C3.05542 14.1421 6.41328 17.5 10.5554 17.5ZM7.22209 11.0003C7.72835 11.0003 8.13875 10.5899 8.13875 10.0837C8.13875 9.5774 7.72835 9.16699 7.22209 9.16699C6.71583 9.16699 6.30542 9.5774 6.30542 10.0837C6.30542 10.5899 6.71583 11.0003 7.22209 11.0003ZM11.472 10.0837C11.472 10.5899 11.0616 11.0003 10.5553 11.0003C10.0491 11.0003 9.63867 10.5899 9.63867 10.0837C9.63867 9.5774 10.0491 9.16699 10.5553 9.16699C11.0616 9.16699 11.472 9.5774 11.472 10.0837ZM13.8888 11.0003C14.3951 11.0003 14.8055 10.5899 14.8055 10.0837C14.8055 9.5774 14.3951 9.16699 13.8888 9.16699C13.3826 9.16699 12.9722 9.5774 12.9722 10.0837C12.9722 10.5899 13.3826 11.0003 13.8888 11.0003Z" fill="#E4B409" />
</svg>