<?xml version="1.0" encoding="UTF-8"?>
<svg viewBox="0 0 25 24" fill="none" xmlns="http://www.w3.org/2000/svg">
  <path d="M20.2188 18.3906L13.825 12.0004L20.2188 5.65714C20.5392 5.28603 20.5219 4.72911 20.179 4.37894C19.8361 4.02878 19.2832 4.00341 18.9101 4.32073L12.4976 10.6169L6.19734 4.27367C5.83275 3.90878 5.24392 3.90878 4.87933 4.27367C4.70236 4.45039 4.60282 4.69094 4.60282 4.94188C4.60282 5.19282 4.70236 5.43337 4.87933 5.61008L11.1703 11.9439L4.7765 18.2777C4.59954 18.4544 4.5 18.695 4.5 18.9459C4.5 19.1969 4.59954 19.4374 4.7765 19.6141C4.95291 19.7903 5.19172 19.8885 5.44018 19.887C5.68409 19.8885 5.91891 19.794 6.09452 19.6235L12.4976 13.2709L18.9101 19.7271C19.0865 19.9032 19.3253 20.0014 19.5738 20C19.819 19.9989 20.054 19.9009 20.2281 19.7271C20.4039 19.5491 20.5017 19.3078 20.5 19.0569C20.4982 18.8059 20.397 18.5661 20.2188 18.3906Z" fill="white" />
</svg>