<?xml version="1.0" encoding="UTF-8"?>
<svg class="icon-bigSize" viewBox="0 0 17 17" fill="none" xmlns="http://www.w3.org/2000/svg">
  <path fill-rule="evenodd" clip-rule="evenodd" d="M4.42893 13.8691H8.39678C8.68613 13.8691 8.9207 14.1037 8.9207 14.393C8.9207 14.6824 8.68613 14.9169 8.39678 14.9169H4.42893C2.62881 14.9131 1.17048 13.4548 1.16663 11.6546V4.75283C1.16478 3.88576 1.50744 3.05347 2.11924 2.43905C2.73104 1.82463 3.56186 1.47841 4.42893 1.47656H7.12539C8.14006 1.47656 8.96261 2.29912 8.96261 3.31379C8.96641 3.74817 9.31761 4.09937 9.75199 4.10317H12.4485C14.2486 4.10701 15.7069 5.56534 15.7107 7.36546C15.7148 7.6611 15.4823 7.90598 15.1868 7.91733C15.0498 7.92304 14.9165 7.87258 14.8175 7.77763C14.7186 7.68268 14.6628 7.55147 14.6629 7.41436C14.6722 6.81973 14.4435 6.24604 14.0276 5.82096C13.6117 5.39588 13.0431 5.15467 12.4485 5.15101H9.75199C8.73732 5.15101 7.91477 4.32846 7.91477 3.31379C7.90349 2.88487 7.55444 2.542 7.12539 2.53838H4.42893C3.20592 2.53838 2.21448 3.52982 2.21448 4.75283V11.6546C2.21448 12.8777 3.20592 13.8691 4.42893 13.8691ZM10.9954 8.20374H13.7897C14.8827 8.20759 15.7666 9.09469 15.7666 10.1877V12.9819C15.7666 13.5062 15.5583 14.0091 15.1876 14.3798C14.8168 14.7506 14.314 14.9589 13.7897 14.9589H10.9954C9.90246 14.9589 9.01536 14.0749 9.01151 12.9819V10.1877C9.01151 9.09197 9.89974 8.20374 10.9954 8.20374ZM13.7897 13.7923C14.2372 13.7923 14.6 13.4295 14.6 12.9819V10.1877C14.6019 9.97154 14.5173 9.76363 14.3652 9.61015C14.213 9.45667 14.0058 9.37033 13.7897 9.37034H10.9954C10.544 9.37034 10.1781 9.73627 10.1781 10.1877V12.9819C10.1781 13.1981 10.2644 13.4052 10.4179 13.5574C10.5714 13.7096 10.7793 13.7941 10.9954 13.7923H13.7897ZM13.1819 10.4391L12.0014 11.6477L11.5822 11.2495C11.4543 11.0853 11.2414 11.0124 11.0396 11.0637C10.8379 11.1151 10.6858 11.2809 10.6519 11.4863C10.6181 11.6917 10.7091 11.8976 10.8837 12.0109L11.673 12.7654C11.7714 12.8582 11.9011 12.9106 12.0363 12.9121C12.1785 12.9112 12.3144 12.8533 12.4135 12.7514L13.9573 11.1726C14.1599 10.9643 14.1552 10.6312 13.9469 10.4287C13.7385 10.2261 13.4054 10.2308 13.2029 10.4391H13.1819Z" fill="#28B0FE" />
</svg>