<?xml version="1.0" encoding="UTF-8"?>
<svg width="29" height="24" viewBox="0 0 29 24" fill="none" xmlns="http://www.w3.org/2000/svg">
  <g filter="url(#filter0_d_2167_7458)">
    <path d="M14.43 0.0997878C14.2676 0.0295299 14.0895 0.00361978 13.9138 0.0247017C13.7381 0.0457836 13.5712 0.113103 13.43 0.219788L8.65 3.99979H5C4.73478 3.99979 4.48043 4.10514 4.29289 4.29268C4.10536 4.48022 4 4.73457 4 4.99979V10.9998C4 11.265 4.10536 11.5194 4.29289 11.7069C4.48043 11.8944 4.73478 11.9998 5 11.9998H8.65L13.38 15.7798C13.5559 15.9209 13.7744 15.9985 14 15.9998C14.1494 16.0023 14.297 15.9679 14.43 15.8998C14.6002 15.8187 14.744 15.6912 14.8448 15.532C14.9457 15.3728 14.9995 15.1883 15 14.9998V0.999788C14.9995 0.811302 14.9457 0.626804 14.8448 0.467567C14.744 0.308329 14.6002 0.180836 14.43 0.0997878ZM13 12.9198L9.62 10.2198C9.44406 10.0786 9.22556 10.0011 9 9.99979H6V5.99979H9C9.22556 5.99848 9.44406 5.92095 9.62 5.77979L13 3.07979V12.9198ZM21.66 2.33979C21.4717 2.15148 21.2163 2.0457 20.95 2.0457C20.6837 2.0457 20.4283 2.15148 20.24 2.33979C20.0517 2.52809 19.9459 2.78349 19.9459 3.04979C19.9459 3.31609 20.0517 3.57148 20.24 3.75979C20.8289 4.34773 21.289 5.05172 21.5911 5.82704C21.8933 6.60236 22.0309 7.43205 21.9951 8.2634C21.9594 9.09475 21.7511 9.90958 21.3835 10.6561C21.016 11.4026 20.4971 12.0646 19.86 12.5998C19.7053 12.7321 19.5946 12.9085 19.5428 13.1054C19.491 13.3022 19.5005 13.5103 19.5701 13.7016C19.6396 13.8929 19.766 14.0584 19.9321 14.1761C20.0983 14.2937 20.2964 14.3578 20.5 14.3598C20.7337 14.3602 20.9601 14.2789 21.14 14.1298C21.9909 13.4171 22.6843 12.5351 23.1759 11.5399C23.6675 10.5447 23.9466 9.45816 23.9955 8.34926C24.0444 7.24037 23.862 6.13342 23.4599 5.09883C23.0579 4.06424 22.4449 3.12464 21.66 2.33979ZM18.83 5.16979C18.7368 5.07655 18.6261 5.00259 18.5042 4.95213C18.3824 4.90167 18.2519 4.8757 18.12 4.8757C17.9881 4.8757 17.8576 4.90167 17.7358 4.95213C17.6139 5.00259 17.5032 5.07655 17.41 5.16979C17.3168 5.26303 17.2428 5.37372 17.1923 5.49554C17.1419 5.61736 17.1159 5.74793 17.1159 5.87979C17.1159 6.01165 17.1419 6.14221 17.1923 6.26404C17.2428 6.38586 17.3168 6.49655 17.41 6.58979C17.7856 6.96314 17.9978 7.47021 18 7.99979C18.0002 8.29114 17.9368 8.57902 17.8142 8.8433C17.6915 9.10758 17.5126 9.34187 17.29 9.52979C17.1887 9.61374 17.105 9.71684 17.0437 9.83319C16.9823 9.94953 16.9445 10.0768 16.9325 10.2078C16.9204 10.3388 16.9343 10.4709 16.9733 10.5965C17.0124 10.7221 17.0758 10.8387 17.16 10.9398C17.2447 11.0403 17.3483 11.1232 17.465 11.1836C17.5817 11.2441 17.7092 11.2809 17.8401 11.2921C17.9711 11.3032 18.1029 11.2884 18.2282 11.2486C18.3534 11.2087 18.4696 11.1446 18.57 11.0598C19.0171 10.6849 19.3768 10.2167 19.6238 9.68813C19.8709 9.15952 19.9992 8.58327 20 7.99979C19.9944 6.9399 19.5744 5.92424 18.83 5.16979Z" fill="#28B0FE" />
  </g>
  <defs>
    <filter id="filter0_d_2167_7458" x="0" y="0.0175781" width="28.0034" height="23.9824" filterUnits="userSpaceOnUse" color-interpolation-filters="sRGB">
      <feFlood flood-opacity="0" result="BackgroundImageFix" />
      <feColorMatrix in="SourceAlpha" type="matrix" values="0 0 0 0 0 0 0 0 0 0 0 0 0 0 0 0 0 0 127 0" result="hardAlpha" />
      <feOffset dy="4" />
      <feGaussianBlur stdDeviation="2" />
      <feComposite in2="hardAlpha" operator="out" />
      <feColorMatrix type="matrix" values="0 0 0 0 0.156863 0 0 0 0 0.690196 0 0 0 0 0.996078 0 0 0 0.62 0" />
      <feBlend mode="normal" in2="BackgroundImageFix" result="effect1_dropShadow_2167_7458" />
      <feBlend mode="normal" in="SourceGraphic" in2="effect1_dropShadow_2167_7458" result="shape" />
    </filter>
  </defs>
</svg>