<svg width="41" height="44" viewBox="0 0 41 44" fill="none" xmlns="http://www.w3.org/2000/svg">
<g clip-path="url(#clip0_887_11329)">
<path d="M4.48426 31.808C4.39275 31.8997 4.30123 31.8997 4.30123 31.8997C4.30123 31.8997 4.30123 31.8997 4.39275 31.8997C4.39275 31.8997 4.30123 31.8997 4.30123 31.9914C4.30123 31.9914 4.30123 31.9914 4.20971 31.9914C3.93516 32.1747 3.84364 32.358 4.20971 32.5414L16.8392 39.8747C17.3883 40.2414 18.3035 40.1497 18.7611 39.8747L40.8169 27.133C41.1829 26.9497 41.0914 26.7664 40.8169 26.583L28.1874 19.2497C27.6383 18.9747 26.8146 18.9747 26.2655 19.2497C10.5244 28.3247 5.674 31.0747 4.48426 31.808ZM26.174 24.7497L24.8012 25.5747C24.5267 25.6664 24.2521 25.6664 24.1606 25.3914C24.0691 25.208 24.0691 24.8414 24.3436 24.7497L25.7164 23.9247C25.8994 23.833 26.2655 23.833 26.357 24.108C26.4486 24.2914 26.4486 24.5664 26.174 24.7497ZM26.5401 26.033L27.9128 25.208C28.0959 25.1164 28.4619 25.1164 28.5535 25.3914C28.645 25.5747 28.645 25.9414 28.3704 26.033L26.9977 26.858C26.7231 26.9497 26.4486 26.9497 26.357 26.6747C26.2655 26.4914 26.2655 26.1247 26.5401 26.033ZM24.8927 28.0497L23.52 28.8747C23.2454 28.9664 22.9709 28.9664 22.8794 28.6914C22.7878 28.508 22.7878 28.1414 23.0624 28.0497L24.4352 27.2247C24.6182 27.133 24.9843 27.133 25.0758 27.408C25.2588 27.683 25.1673 27.958 24.8927 28.0497ZM22.0557 23.3747L23.4285 22.5497C23.6115 22.458 23.9776 22.458 24.0691 22.733C24.1606 22.9164 24.1606 23.283 23.8861 23.3747L22.5133 24.1997C22.2387 24.2914 21.9642 24.2914 21.8727 24.0164C21.7811 23.833 21.7811 23.558 22.0557 23.3747ZM22.2387 25.9414C22.4218 25.8497 22.7878 25.8497 22.8794 26.1247C22.9709 26.308 22.9709 26.6747 22.6963 26.7664L21.3235 27.5914C21.1405 27.683 20.7744 27.683 20.6829 27.408C20.5914 27.2247 20.5914 26.858 20.866 26.7664L22.2387 25.9414ZM18.578 25.483L19.9508 24.658C20.1338 24.5664 20.4999 24.5664 20.5914 24.8414C20.6829 25.0247 20.6829 25.3914 20.4084 25.483L19.0356 26.308C18.761 26.3997 18.4865 26.3997 18.395 26.1247C18.2119 25.8497 18.3035 25.5747 18.578 25.483ZM15.0088 27.4997L16.3816 26.6747C16.5646 26.583 16.9307 26.583 17.0222 26.858C17.1137 27.0414 17.1137 27.408 16.8392 27.4997L15.5579 28.3247C15.2834 28.4164 15.0088 28.4164 14.9173 28.1414C14.7343 27.958 14.8258 27.5914 15.0088 27.4997ZM11.5311 29.5164L12.9039 28.6914C13.0869 28.5997 13.453 28.5997 13.5445 28.8747C13.6361 29.058 13.6361 29.4247 13.3615 29.5164L11.9887 30.3414C11.7142 30.433 11.4396 30.433 11.3481 30.158C11.2566 29.9747 11.3481 29.6997 11.5311 29.5164ZM8.51105 32.358C8.2365 32.4497 7.96194 32.4497 7.87042 32.1747C7.77891 31.9914 7.77891 31.6247 8.05346 31.533L9.42623 30.708C9.60926 30.6164 9.97534 30.6164 10.0669 30.8914C10.1584 31.0747 10.1584 31.4414 9.88382 31.533L8.51105 32.358ZM10.799 33.733C10.616 33.8247 10.2499 33.8247 10.1584 33.5497C10.0669 33.3664 10.0669 32.9997 10.3414 32.908L11.7142 32.083C11.8972 31.9914 12.2633 31.9914 12.3548 32.2664C12.4463 32.4497 12.4463 32.8164 12.1718 32.908L10.799 33.733ZM14.4597 34.1914L13.0869 35.0164C12.8124 35.108 12.5378 35.108 12.4463 34.833C12.3548 34.6497 12.3548 34.283 12.6294 34.1914L14.0021 33.3664C14.1852 33.2747 14.5512 33.2747 14.6427 33.5497C14.7343 33.733 14.6427 34.0997 14.4597 34.1914ZM14.2767 31.6247C14.0936 31.7164 13.7276 31.7164 13.636 31.4414C13.5445 31.258 13.5445 30.8914 13.8191 30.7997L15.1919 29.9747C15.3749 29.883 15.741 29.883 15.8325 30.158C15.924 30.3414 15.924 30.708 15.6494 30.7997L14.2767 31.6247ZM17.9374 32.1747L16.4731 32.9997C16.1986 33.0914 15.924 33.0914 15.8325 32.8164C15.741 32.633 15.741 32.2664 16.0155 32.1747L17.3883 31.3497C17.5713 31.258 17.9374 31.258 18.0289 31.533C18.2119 31.7164 18.1204 31.9914 17.9374 32.1747ZM17.7544 29.608C17.5713 29.6997 17.2052 29.6997 17.1137 29.4247C17.0222 29.2414 17.0222 28.8747 17.2968 28.783L18.6695 27.958C18.8526 27.8664 19.2186 27.8664 19.3102 28.1414C19.4017 28.3247 19.4017 28.6914 19.1271 28.783L17.7544 29.608ZM19.4017 30.7997C19.3102 30.6164 19.3102 30.2497 19.5847 30.158L20.9575 29.333C21.1405 29.2414 21.5066 29.2414 21.5981 29.5164C21.6896 29.6997 21.6896 30.0664 21.4151 30.158L20.0423 30.983C19.7677 31.0747 19.4932 30.983 19.4017 30.7997ZM29.6517 31.8997L24.0691 35.108C23.9776 35.1997 23.7945 35.1997 23.6115 35.108L20.7744 33.458C20.6829 33.3664 20.5914 33.2747 20.5914 33.0914C20.5914 32.908 20.6829 32.8164 20.7744 32.7247L26.357 29.5164C26.4486 29.4247 26.6316 29.4247 26.8146 29.5164L29.6517 31.1664C29.7432 31.258 29.8347 31.3497 29.8347 31.533C29.8347 31.6247 29.7432 31.808 29.6517 31.8997ZM31.482 23.1914C31.6651 23.0997 32.0311 23.0997 32.1227 23.3747C32.2142 23.558 32.2142 23.9247 31.9396 24.0164L30.5669 24.8414C30.2923 24.933 30.0177 24.933 29.9262 24.658C29.8347 24.4747 29.8347 24.108 30.1093 24.0164L31.482 23.1914ZM29.1941 21.8164C29.3771 21.7247 29.7432 21.7247 29.8347 21.9997C29.9262 22.183 29.9262 22.5497 29.6517 22.6414L28.2789 23.4664C28.0959 23.558 27.7298 23.558 27.6383 23.283C27.5468 23.0997 27.5468 22.733 27.8213 22.6414L29.1941 21.8164ZM27.6383 20.7164C27.7298 20.8997 27.7298 21.2664 27.4552 21.358L26.0825 22.183C25.8079 22.2747 25.5334 22.2747 25.4419 21.9997C25.3503 21.8164 25.3503 21.4497 25.6249 21.358L26.9977 20.533C27.1807 20.4414 27.4552 20.533 27.6383 20.7164Z" fill="url(#paint0_linear_887_11329)"/>
<path d="M4.39282 31.8081C4.39282 31.8081 4.48434 31.8081 4.39282 31.8081C4.48434 31.8081 4.48434 31.7164 4.48434 31.7164C4.48434 31.8081 4.48434 31.8081 4.39282 31.8081Z" fill="black"/>
<path d="M3.47768 13.7498C3.47768 13.7498 3.5692 13.7498 3.47768 13.7498C3.5692 13.7498 3.5692 13.7498 3.66071 13.6581C3.75223 13.6581 3.75223 13.5664 3.75223 13.5664C4.85045 12.9248 9.42634 10.2664 25.2589 1.09976L23.4286 -0.000244141C23.3371 -0.000244141 23.2455 -0.000244141 23.0625 0.0914225C6.40625 9.71642 2.10491 12.1914 1.18973 12.7414C1.18973 12.7414 1.18973 12.7414 1.09821 12.8331C1.09821 12.8331 1.09821 12.8331 1.0067 12.8331H0.915179C0.457589 13.1998 0 13.9331 0 14.5748V29.2414C0 29.4248 0.0915179 29.6081 0.0915179 29.6081L2.01339 30.7081V16.3164C2.01339 15.3081 2.74554 14.2081 3.47768 13.7498Z" fill="url(#paint1_linear_887_11329)"/>
<path d="M25.1673 18.6998C25.1673 18.6998 25.2589 18.6998 25.1673 18.6998C25.2589 18.6998 25.2589 18.6998 25.1673 18.6998C25.2589 18.6081 25.3504 18.6081 25.4419 18.6081L25.5334 18.5165H25.4419C25.4419 18.5165 25.5334 18.5165 25.5334 18.4248C25.5334 18.4248 25.6249 18.4248 25.6249 18.3331C26.174 18.0581 26.5401 17.2331 26.5401 16.6831V2.01647C26.5401 1.83314 26.4486 1.64981 26.0825 1.83314C26.174 1.74147 16.2901 7.51647 4.02672 14.5748C3.56913 14.8498 3.02002 15.6748 3.02002 16.2248V30.8915C3.02002 31.2581 3.20306 31.3498 3.56913 31.1665C18.9441 22.3665 23.7946 19.5248 25.1673 18.6998ZM24.6182 17.4165L5.67404 28.4165C5.491 28.4165 5.39948 28.4165 5.30797 28.4165C4.94189 28.4165 4.66734 28.1415 4.66734 27.7748V16.2248C4.66734 16.0415 4.85038 15.7665 5.03341 15.5831L23.9776 4.58314C24.1606 4.49147 24.4352 4.49147 24.6182 4.58314C24.8013 4.67481 24.8928 4.85814 24.8928 5.13314V16.6831C24.8928 16.9581 24.7098 17.3248 24.6182 17.4165Z" fill="url(#paint2_linear_887_11329)"/>
<path d="M41 28.1415L19.2188 40.7915C18.3951 41.2498 17.1138 41.2498 16.2902 40.7915L3.84375 33.5498V36.1165C3.84375 36.2081 3.93527 36.2998 4.1183 36.3915C14.1853 42.2581 6.6808 37.8581 16.7478 43.8165C17.2969 44.0915 18.1205 44.0915 18.6696 43.8165L40.7254 31.0748C40.9085 30.9831 41 30.8915 41 30.7998V28.1415Z" fill="url(#paint3_linear_887_11329)"/>
<path d="M25.5334 18.5164C25.625 18.5164 25.625 18.5164 25.5334 18.5164C25.625 18.4248 25.625 18.5164 25.5334 18.5164C25.625 18.5164 25.625 18.5164 25.5334 18.5164Z" fill="black"/>
<path d="M10.067 21.6331L7.22993 23.2831C7.04689 23.3748 6.95537 23.7415 7.04689 23.9248C7.13841 24.1081 7.50448 24.1998 7.68751 24.1081L10.5246 22.4581C10.7076 22.3665 10.7991 21.9998 10.7076 21.8165C10.6161 21.6331 10.3415 21.5415 10.067 21.6331Z" fill="#56ACDD"/>
<path d="M15.9242 18.3331L13.0871 19.9831C12.9041 20.0747 12.8125 20.4414 12.9041 20.6247C12.9956 20.8081 13.3617 20.8997 13.5447 20.8081L16.3817 19.1581C16.5648 19.0664 16.6563 18.6997 16.5648 18.5164C16.4733 18.3331 16.1987 18.2414 15.9242 18.3331Z" fill="#56ACDD"/>
<path d="M21.8729 15.1248L19.0358 16.7748C18.8528 16.8665 18.7613 17.2331 18.8528 17.4165C18.9443 17.5998 19.3104 17.6915 19.4934 17.5998L22.3305 15.9498C22.5135 15.8581 22.605 15.4915 22.5135 15.3081C22.3305 15.0331 22.0559 14.9415 21.8729 15.1248Z" fill="#56ACDD"/>
<path d="M8.69416 16.2247C7.68747 16.7747 6.95532 18.058 6.95532 19.158C6.95532 20.4414 7.96202 20.9914 9.06023 20.3497C9.97541 19.7997 10.7991 18.5164 10.7991 17.4164C10.7991 16.2247 9.79238 15.583 8.69416 16.2247Z" fill="#56ACDD"/>
<path d="M14.5513 12.8331C13.5446 13.3831 12.8125 14.7581 12.8125 15.8581C12.8125 17.1414 13.9107 17.7831 15.0089 17.1414C16.0156 16.5914 16.7478 15.2164 16.7478 14.1164C16.7478 12.7414 15.6496 12.1914 14.5513 12.8331Z" fill="#56ACDD"/>
<path d="M20.4085 9.44146C19.4018 9.99146 18.6697 11.3665 18.6697 12.4665C18.6697 13.8415 19.7679 14.3915 20.8661 13.7498C21.8728 13.1998 22.6049 11.8248 22.6049 10.7248C22.6049 9.34979 21.5982 8.79979 20.4085 9.44146Z" fill="#56ACDD"/>
</g>
<defs>
<linearGradient id="paint0_linear_887_11329" x1="9.64828" y1="22.3082" x2="30.4597" y2="38.779" gradientUnits="userSpaceOnUse">
<stop stop-color="#73C7FF"/>
<stop offset="1" stop-color="#417FA8"/>
</linearGradient>
<linearGradient id="paint1_linear_887_11329" x1="3.86819" y1="4.75728" x2="24.1447" y2="12.2568" gradientUnits="userSpaceOnUse">
<stop stop-color="#73C7FF"/>
<stop offset="1" stop-color="#417FA8"/>
</linearGradient>
<linearGradient id="paint2_linear_887_11329" x1="6.62192" y1="6.32767" x2="25.6411" y2="13.146" gradientUnits="userSpaceOnUse">
<stop stop-color="#73C7FF"/>
<stop offset="1" stop-color="#417FA8"/>
</linearGradient>
<linearGradient id="paint3_linear_887_11329" x1="9.53391" y1="30.6019" x2="25.6283" y2="47.5338" gradientUnits="userSpaceOnUse">
<stop stop-color="#73C7FF"/>
<stop offset="1" stop-color="#417FA8"/>
</linearGradient>
<clipPath id="clip0_887_11329">
<rect width="41" height="44" fill="white" transform="translate(0 -0.000244141)"/>
</clipPath>
</defs>
</svg>
