<?xml version="1.0" encoding="UTF-8"?>
<svg class="icon-defaultSize" viewBox="0 0 17 17" fill="none" xmlns="http://www.w3.org/2000/svg">
  <path d="M6.6665 6.33398C6.39186 6.33757 6.17009 6.55934 6.1665 6.83398V10.834C6.1665 11.1101 6.39036 11.334 6.6665 11.334C6.94265 11.334 7.1665 11.1101 7.1665 10.834V6.83398C7.16291 6.55934 6.94115 6.33757 6.6665 6.33398V6.33398Z" fill="#28B0FE" />
  <path d="M9.99976 6.33398C9.72511 6.33757 9.50335 6.55934 9.49976 6.83398V10.834C9.49976 11.1101 9.72361 11.334 9.99976 11.334C10.2759 11.334 10.4998 11.1101 10.4998 10.834V6.83398C10.4962 6.55934 10.2744 6.33757 9.99976 6.33398V6.33398Z" fill="#28B0FE" />
  <path fill-rule="evenodd" clip-rule="evenodd" d="M5.6665 2.16797H10.9998C13.209 2.16797 14.9998 3.95883 14.9998 6.16797V11.5013C14.9998 13.7104 13.209 15.5013 10.9998 15.5013H5.6665C3.45736 15.5013 1.6665 13.7104 1.6665 11.5013V6.16797C1.6665 3.95883 3.45736 2.16797 5.6665 2.16797ZM13.0611 13.5626C13.6074 13.0163 13.9119 12.2738 13.9065 11.5013V6.16797C13.9119 5.39544 13.6074 4.65299 13.0611 4.10672C12.5148 3.56044 11.7724 3.25593 10.9998 3.2613H5.66651C4.89398 3.25593 4.15153 3.56044 3.60526 4.10672C3.05898 4.65299 2.75447 5.39544 2.75984 6.16797V11.5013C2.75447 12.2738 3.05898 13.0163 3.60526 13.5626C4.15153 14.1088 4.89398 14.4133 5.66651 14.408H10.9998C11.7724 14.4133 12.5148 14.1088 13.0611 13.5626Z" fill="#28B0FE" />
</svg>