<?xml version="1.0" encoding="UTF-8"?>
<svg viewBox="0 0 20 19" fill="none" xmlns="http://www.w3.org/2000/svg">
  <path fill-rule="evenodd" clip-rule="evenodd" d="M6.84424 9.31013C6.84424 8.15186 7.73849 7.21289 8.84161 7.21289C9.94472 7.21289 10.839 8.15186 10.839 9.31013C10.839 10.4684 9.94472 11.4074 8.84161 11.4074C7.73849 11.4074 6.84424 10.4684 6.84424 9.31013ZM8.14687 9.31013C8.14687 9.713 8.45791 10.0396 8.8416 10.0396C9.2253 10.0396 9.53634 9.713 9.53634 9.31013C9.53634 8.90725 9.2253 8.58065 8.8416 8.58065C8.45791 8.58065 8.14687 8.90725 8.14687 9.31013Z" fill="white" />
  <path fill-rule="evenodd" clip-rule="evenodd" d="M12.9319 5.45311L16.5619 8.49866C16.7966 8.69594 16.9332 8.99452 16.9332 9.3102C16.9332 9.62589 16.7966 9.92447 16.5619 10.1217L12.9319 13.1673C10.5394 15.1725 7.14383 15.1725 4.75135 13.1673L1.12135 10.1217C0.886625 9.92447 0.75 9.62589 0.75 9.3102C0.75 8.99452 0.886625 8.69594 1.12135 8.49866L4.75135 5.45311C7.14383 3.44792 10.5394 3.44792 12.9319 5.45311ZM5.55898 12.146C7.48027 13.7516 10.2029 13.7516 12.1242 12.146L15.4416 9.3102L12.1242 6.51996C10.2029 4.91435 7.48027 4.91435 5.55898 6.51996L2.24161 9.3102L5.55898 12.146Z" fill="white" />
</svg>