<?xml version="1.0" encoding="UTF-8"?>
<svg viewBox="0 0 13 14" fill="none" xmlns="http://www.w3.org/2000/svg">
  <path fill-rule="evenodd" clip-rule="evenodd" d="M0.70784 4.11297C1.65864 1.82988 3.88641 0.340111 6.35956 0.333506C9.02502 0.319469 11.3951 2.02679 12.226 4.55948C13.0568 7.09218 12.1587 9.87166 10.0029 11.4393C7.84715 13.0069 4.92617 13.0046 2.77289 11.4335L0.852893 13.3535C0.657682 13.5485 0.341438 13.5485 0.146227 13.3535C-0.0487422 13.1583 -0.0487422 12.8421 0.146227 12.6468L2.00623 10.7868C0.268829 9.02673 -0.242963 6.39606 0.70784 4.11297ZM1.59927 8.44613C2.39759 10.3699 4.27672 11.6229 6.35956 11.6202V11.5935C9.18642 11.5899 11.4813 9.30697 11.4996 6.48017C11.5023 4.39733 10.2493 2.5182 8.32552 1.71989C6.40174 0.92157 4.18645 1.36147 2.71365 2.83427C1.24086 4.30706 0.800958 6.52235 1.59927 8.44613Z" fill="white" />
</svg>