<?xml version="1.0" encoding="UTF-8"?>
<svg class="icon-defaultSize" viewBox="0 0 17 17" fill="none" xmlns="http://www.w3.org/2000/svg">
  <path fill-rule="evenodd" clip-rule="evenodd" d="M2.81892 5.94752C3.76973 3.66443 5.99749 2.17466 8.47064 2.16805C11.1361 2.15402 13.5062 3.86134 14.3371 6.39403C15.1679 8.92673 14.2698 11.7062 12.114 13.2738C9.95824 14.8415 7.03725 14.8391 4.88398 13.2681L2.96398 15.1881C2.76877 15.383 2.45252 15.383 2.25731 15.1881C2.06234 14.9928 2.06234 14.6766 2.25731 14.4814L4.11731 12.6214C2.37991 10.8613 1.86812 8.23061 2.81892 5.94752ZM3.71036 10.2807C4.50867 12.2045 6.3878 13.4574 8.47064 13.4547V13.4281C11.2975 13.4245 13.5923 11.1415 13.6106 8.31472C13.6133 6.23188 12.3604 4.35275 10.4366 3.55443C8.51282 2.75612 6.29753 3.19602 4.82474 4.66882C3.35194 6.14161 2.91204 8.3569 3.71036 10.2807Z" fill="#28B0FE" />
</svg>