<?xml version="1.0" encoding="UTF-8"?>
<svg viewBox="0 0 10 11" fill="none" xmlns="http://www.w3.org/2000/svg">
  <path fill-rule="evenodd" clip-rule="evenodd" d="M3.9065 0.816778L8.73983 3.61011C9.35663 3.96791 9.73629 4.62704 9.73629 5.34011C9.73629 6.05318 9.35663 6.71231 8.73983 7.07011L3.9065 9.86344C3.28749 10.2208 2.52483 10.2207 1.90594 9.86312C1.28705 9.50555 0.906037 8.84487 0.906494 8.13011V2.55011C0.906037 1.83535 1.28705 1.17468 1.90594 0.817098C2.52483 0.459519 3.28749 0.459397 3.9065 0.816778ZM3.3065 8.82344L8.13983 6.03678C8.38853 5.8948 8.54141 5.62981 8.53983 5.34344C8.54241 5.05507 8.38959 4.78763 8.13983 4.64344L3.3065 1.85678C3.18561 1.78411 3.04753 1.74499 2.9065 1.74344C2.46099 1.74344 2.09983 2.1046 2.09983 2.55011V8.13011C2.09983 8.34405 2.18482 8.54923 2.3361 8.70051C2.48738 8.85179 2.69255 8.93678 2.9065 8.93678C3.04753 8.93523 3.18561 8.89611 3.3065 8.82344Z" fill="#28B0FE" />
</svg>