<?xml version="1.0" encoding="UTF-8"?>
<svg viewBox="0 0 21 21" fill="none" xmlns="http://www.w3.org/2000/svg">
  <path fill-rule="evenodd" clip-rule="evenodd" d="M10.5 2.64258C6.35786 2.64258 3 6.00044 3 10.1426C3 14.2847 6.35786 17.6426 10.5 17.6426C14.6421 17.6426 18 14.2847 18 10.1426C18 6.00044 14.6421 2.64258 10.5 2.64258ZM14.2335 7.91208C14.0057 7.68428 13.6364 7.68428 13.4086 7.91209L9.93198 11.3887L7.98744 9.44415C7.75963 9.21634 7.39028 9.21634 7.16248 9.44415C6.93467 9.67196 6.93467 10.0413 7.16248 10.2691L9.40165 12.5083C9.42166 12.5283 9.44276 12.5465 9.46475 12.563C9.48125 12.585 9.4995 12.6061 9.5195 12.6261C9.74731 12.8539 10.1167 12.8539 10.3445 12.6261L14.2335 8.73704C14.4614 8.50924 14.4614 8.13989 14.2335 7.91208Z" fill="#23A30E" />
</svg>