<?xml version="1.0" encoding="UTF-8"?>
<svg width="22" height="22" viewBox="0 0 22 22" fill="none" xmlns="http://www.w3.org/2000/svg">
  <path fill-rule="evenodd" clip-rule="evenodd" d="M6 2H16.5C18.7091 2 20.5 3.79086 20.5 6V16.5C20.5 18.7091 18.7091 20.5 16.5 20.5H6C3.79086 20.5 2 18.7091 2 16.5V6C2 3.79086 3.79086 2 6 2ZM16.5 19C17.8807 19 19 17.8807 19 16.5V6C19 4.61929 17.8807 3.5 16.5 3.5H6C4.61929 3.5 3.5 4.61929 3.5 6V16.5C3.5 17.8807 4.61929 19 6 19H16.5Z" fill="white" />
  <path fill-rule="evenodd" clip-rule="evenodd" d="M15.8627 9.34033C15.9821 9.62671 16.2598 9.81515 16.57 9.82022C16.775 9.81751 16.9725 9.89776 17.1174 10.0428C17.2624 10.1878 17.3427 10.3852 17.34 10.5902V11.9102C17.3427 12.1153 17.2624 12.3127 17.1174 12.4577C16.9725 12.6027 16.775 12.6829 16.57 12.6802C16.2598 12.6853 15.9821 12.8737 15.8627 13.1601C15.7434 13.4465 15.8051 13.7764 16.02 14.0002C16.1647 14.1447 16.246 14.3407 16.246 14.5452C16.246 14.7497 16.1647 14.9458 16.02 15.0902L15.09 16.0202C14.9469 16.1675 14.7503 16.2505 14.545 16.2505C14.3397 16.2505 14.1431 16.1675 14 16.0202C13.8552 15.8798 13.6617 15.801 13.46 15.8002C13.254 15.7975 13.0556 15.8775 12.909 16.0222C12.7625 16.1669 12.68 16.3643 12.68 16.5702C12.6827 16.7753 12.6024 16.9727 12.4574 17.1177C12.3125 17.2627 12.115 17.3429 11.91 17.3402H10.59C10.3849 17.3429 10.1875 17.2627 10.0425 17.1177C9.89751 16.9727 9.81726 16.7753 9.81998 16.5702C9.82 16.3643 9.7375 16.1669 9.59093 16.0222C9.44435 15.8775 9.24592 15.7975 9.03998 15.8002C8.83831 15.801 8.64477 15.8798 8.49998 16.0202C8.35688 16.1675 8.1603 16.2505 7.95498 16.2505C7.74966 16.2505 7.55308 16.1675 7.40998 16.0202L6.47998 15.0902C6.33525 14.9458 6.25392 14.7497 6.25392 14.5452C6.25392 14.3407 6.33525 14.1447 6.47998 14.0002C6.69481 13.7764 6.75656 13.4465 6.63723 13.1601C6.5179 12.8737 6.24019 12.6853 5.92998 12.6802C5.72494 12.6829 5.52751 12.6027 5.38251 12.4577C5.23752 12.3127 5.15726 12.1153 5.15998 11.9102V10.5902C5.15726 10.3852 5.23752 10.1878 5.38251 10.0428C5.52751 9.89776 5.72494 9.81751 5.92998 9.82022C6.24019 9.81515 6.5179 9.62671 6.63723 9.34033C6.75656 9.05394 6.69481 8.72406 6.47998 8.50022C6.33525 8.35578 6.25392 8.1597 6.25392 7.95522C6.25392 7.75075 6.33525 7.55467 6.47998 7.41022L7.40998 6.48022C7.55308 6.33299 7.74966 6.24992 7.95498 6.24992C8.1603 6.24992 8.35688 6.33299 8.49998 6.48022C8.64477 6.62061 8.83831 6.69946 9.03998 6.70022C9.24592 6.7029 9.44435 6.62296 9.59093 6.47826C9.7375 6.33357 9.82 6.13618 9.81998 5.93022C9.81726 5.72519 9.89751 5.52775 10.0425 5.38276C10.1875 5.23776 10.3849 5.15751 10.59 5.16022H11.91C12.115 5.15751 12.3125 5.23776 12.4574 5.38276C12.6024 5.52775 12.6827 5.72519 12.68 5.93022C12.68 6.13618 12.7625 6.33357 12.909 6.47826C13.0556 6.62296 13.254 6.7029 13.46 6.70022C13.6617 6.69946 13.8552 6.62061 14 6.48022C14.1431 6.33299 14.3397 6.24992 14.545 6.24992C14.7503 6.24992 14.9469 6.33299 15.09 6.48022L16.02 7.41022C16.1647 7.55467 16.246 7.75075 16.246 7.95522C16.246 8.1597 16.1647 8.35578 16.02 8.50022C15.8051 8.72406 15.7434 9.05394 15.8627 9.34033ZM14.47 12.5902C14.7207 11.9838 15.2196 11.5141 15.84 11.3002V11.2502C15.2196 11.0364 14.7207 10.5667 14.47 9.96022C14.2189 9.35749 14.2408 8.67562 14.53 8.09022L14.46 8.02022C14.1487 8.17255 13.8065 8.25124 13.46 8.25022C12.49 8.22325 11.6433 7.58524 11.35 6.66022H11.25C10.9508 7.60245 10.0785 8.24454 9.08998 8.25022C8.74342 8.25124 8.40127 8.17255 8.08998 8.02022L8.01998 8.09022C8.30917 8.67562 8.33105 9.35749 8.07998 9.96022C7.82924 10.5667 7.33039 11.0364 6.70998 11.2502V11.3002C7.33039 11.5141 7.82924 11.9838 8.07998 12.5902C8.33105 13.193 8.30917 13.8748 8.01998 14.4602L8.08998 14.5302C8.40127 14.3779 8.74342 14.2992 9.08998 14.3002C10.0652 14.2988 10.9334 14.9178 11.25 15.8402H11.3C11.5118 15.2209 11.9795 14.7224 12.5842 14.4717C13.1889 14.2211 13.8721 14.2424 14.46 14.5302L14.53 14.4602C14.2408 13.8748 14.2189 13.193 14.47 12.5902Z" fill="white" />
  <path fill-rule="evenodd" clip-rule="evenodd" d="M9.1001 11.2496C9.1001 10.0622 10.0627 9.09961 11.2501 9.09961C12.4375 9.09961 13.4001 10.0622 13.4001 11.2496C13.4001 12.437 12.4375 13.3996 11.2501 13.3996C10.0627 13.3996 9.1001 12.437 9.1001 11.2496ZM10.6001 11.2496C10.6001 11.6086 10.8911 11.8996 11.2501 11.8996C11.4225 11.8996 11.5878 11.8311 11.7097 11.7092C11.8316 11.5873 11.9001 11.422 11.9001 11.2496C11.9001 10.8906 11.6091 10.5996 11.2501 10.5996C10.8911 10.5996 10.6001 10.8906 10.6001 11.2496Z" fill="white" />
</svg>