<?xml version="1.0" encoding="UTF-8"?>
<svg width="22" height="22" viewBox="0 0 22 22" fill="none" xmlns="http://www.w3.org/2000/svg">
  <path fill-rule="evenodd" clip-rule="evenodd" d="M17.9482 15.3172L18.1682 16.3622C18.3767 17.2656 18.1709 18.215 17.6069 18.951C17.0429 19.6869 16.1798 20.1326 15.2532 20.1663H6.74655C5.81996 20.1326 4.95682 19.6869 4.39287 18.951C3.82891 18.215 3.62307 17.2656 3.83155 16.3622L4.05155 15.3172C4.30458 13.9026 5.52062 12.863 6.95738 12.833H15.0424C16.4791 12.863 17.6952 13.9026 17.9482 15.3172ZM15.2532 18.7822C15.7187 18.7768 16.1567 18.5611 16.4449 18.1955V18.2047C16.7984 17.7612 16.9362 17.1833 16.8207 16.628L16.6007 15.583C16.4787 14.8086 15.8258 14.2287 15.0424 14.1988H6.95739C6.17397 14.2287 5.52112 14.8086 5.39905 15.583L5.17905 16.628C5.06645 17.1804 5.20404 17.7543 5.55489 18.1955C5.84302 18.5611 6.28108 18.7768 6.74655 18.7822H15.2532Z" fill="white" />
  <path fill-rule="evenodd" clip-rule="evenodd" d="M11.4581 10.9997H10.5414C8.51639 10.9997 6.87477 9.35807 6.87477 7.33302V4.91302C6.87233 4.09541 7.19604 3.31058 7.77418 2.73243C8.35233 2.15429 9.13716 1.83058 9.95477 1.83302H12.0448C12.8624 1.83058 13.6472 2.15429 14.2254 2.73243C14.8035 3.31058 15.1272 4.09541 15.1248 4.91302V7.33302C15.1248 9.35807 13.4831 10.9997 11.4581 10.9997ZM9.95477 3.20802C9.01312 3.20802 8.24977 3.97137 8.24977 4.91302V7.33302C8.24977 8.59867 9.27578 9.62469 10.5414 9.62469H11.4581C12.7238 9.62469 13.7498 8.59867 13.7498 7.33302V4.91302C13.7498 4.46083 13.5701 4.02715 13.2504 3.7074C12.9306 3.38765 12.497 3.20802 12.0448 3.20802H9.95477Z" fill="white" />
</svg>