<?xml version="1.0" encoding="UTF-8"?>
<svg width="22" height="22" viewBox="0 0 22 22" fill="none" xmlns="http://www.w3.org/2000/svg">
  <path fill-rule="evenodd" clip-rule="evenodd" d="M14.1351 4.26284C14.1351 4.64253 13.8273 4.95034 13.4476 4.95034H6.63676V5.03284C6.63175 5.91671 5.91647 6.632 5.03259 6.637H3.49259C2.60872 6.632 1.89344 5.91671 1.88843 5.03284V3.49284C1.89344 2.60896 2.60872 1.89368 3.49259 1.88867H5.03259C5.91647 1.89368 6.63175 2.60896 6.63676 3.49284V3.57534H13.4476C13.8273 3.57534 14.1351 3.88314 14.1351 4.26284ZM5.03259 5.26201C5.15916 5.26201 5.26176 5.1594 5.26176 5.03284V3.49284C5.26176 3.36627 5.15916 3.26367 5.03259 3.26367H3.49259C3.36803 3.26838 3.26813 3.36827 3.26343 3.49284V5.03284C3.26343 5.1594 3.36603 5.26201 3.49259 5.26201H5.03259Z" fill="white" />
  <path fill-rule="evenodd" clip-rule="evenodd" d="M16.9677 1.88867H18.5077C19.3916 1.89368 20.1069 2.60896 20.1119 3.49284V5.03284C20.1069 5.91671 19.3916 6.632 18.5077 6.637H18.4252V13.4478C18.4252 13.8275 18.1174 14.1353 17.7377 14.1353C17.358 14.1353 17.0502 13.8275 17.0502 13.4478V6.637H16.9677C16.0838 6.632 15.3685 5.91671 15.3635 5.03284V3.49284C15.3685 2.60896 16.0838 1.89368 16.9677 1.88867ZM18.5077 5.26201C18.6343 5.26201 18.7369 5.1594 18.7369 5.03284V3.49284C18.7322 3.36827 18.6323 3.26838 18.5077 3.26367H16.9677C16.8411 3.26367 16.7385 3.36627 16.7385 3.49284V5.03284C16.7385 5.1594 16.8411 5.26201 16.9677 5.26201H18.5077Z" fill="white" />
  <path fill-rule="evenodd" clip-rule="evenodd" d="M4.95009 15.3636H5.03259C5.91647 15.3686 6.63175 16.0839 6.63676 16.9677V18.5077C6.63175 19.3916 5.91647 20.1069 5.03259 20.1119H3.49259C2.60872 20.1069 1.89344 19.3916 1.88843 18.5077V16.9677C1.89344 16.0839 2.60872 15.3686 3.49259 15.3636H3.57509V8.55273C3.57509 8.17304 3.8829 7.86523 4.26259 7.86523C4.64229 7.86523 4.95009 8.17304 4.95009 8.55273V15.3636ZM5.03259 18.7369C5.15916 18.7369 5.26176 18.6343 5.26176 18.5077V16.9677C5.26176 16.8412 5.15916 16.7386 5.03259 16.7386H3.49259C3.36603 16.7386 3.26343 16.8412 3.26343 16.9677V18.5077C3.26813 18.6323 3.36803 18.7322 3.49259 18.7369H5.03259Z" fill="white" />
  <path fill-rule="evenodd" clip-rule="evenodd" d="M16.9675 15.3633H18.5075C19.3914 15.3683 20.1066 16.0836 20.1117 16.9674V18.5074C20.1066 19.3913 19.3914 20.1066 18.5075 20.1116H16.9675C16.0836 20.1066 15.3683 19.3913 15.3633 18.5074V18.4249H8.55249C8.17279 18.4249 7.86499 18.1171 7.86499 17.7374C7.86499 17.3578 8.17279 17.0499 8.55249 17.0499H15.3633V16.9674C15.3683 16.0836 16.0836 15.3683 16.9675 15.3633ZM18.5075 18.7366C18.6321 18.7319 18.732 18.632 18.7367 18.5074V16.9674C18.7367 16.8409 18.6341 16.7383 18.5075 16.7383H16.9675C16.8409 16.7383 16.7383 16.8409 16.7383 16.9674V18.5074C16.7383 18.634 16.8409 18.7366 16.9675 18.7366H18.5075Z" fill="white" />
</svg>