<svg width="51" height="55" viewBox="0 0 51 55" fill="none" xmlns="http://www.w3.org/2000/svg">
<g clip-path="url(#clip0_887_11235)">
<path d="M22.0043 31.2203C22.0043 31.2203 21.9282 31.1759 22.0043 31.2203V31.2203Z" fill="#417FA8"/>
<path d="M26.4044 12.3821C26.8336 11.5114 27.0633 11.1358 27.4918 10.5195L24.0062 9.55436C23.6237 10.0955 23.3021 10.6213 22.9956 11.2069L25.02 11.7775C24.9439 11.7331 26.3284 12.3377 26.4044 12.3821Z" fill="url(#paint0_linear_887_11235)"/>
<path d="M31.0463 4.03209C31.1834 4.06113 27.9108 3.16939 27.6368 3.1113L23.7101 6.83272L27.1196 7.7535L31.0463 4.03209Z" fill="url(#paint1_linear_887_11235)"/>
<path d="M38.2592 6.6643C38.5934 6.96143 38.8817 7.33368 39.1851 7.76568L40.24 6.5468L38.4287 6.04968L38.2592 6.6643Z" fill="url(#paint2_linear_887_11235)"/>
<path d="M32.0221 3.78641C32.5465 6.64117 32.3667 5.66966 32.3508 5.8643C32.7017 5.7124 33.5404 5.43764 33.7234 5.39157C33.6925 5.52645 34.3094 3.08333 34.2793 2.96381C34.4924 3.03726 30.8698 2.04303 30.7937 1.99862L30.5007 3.15275C30.4247 3.10834 31.6879 3.48928 31.7489 3.47392C31.84 3.57808 31.992 3.66689 32.0221 3.78641Z" fill="url(#paint3_linear_887_11235)"/>
<path d="M20.9626 18.3279C20.8256 18.2989 20.7496 18.2545 20.6886 18.2698C20.7496 18.2545 20.8256 18.2989 20.9626 18.3279C21.2367 18.386 21.7388 18.5773 22.6369 18.796C23.992 14.1334 24.4228 12.754 24.5305 12.4091L24.5155 12.3493C23.5413 12.0862 24.3024 12.2759 21.0299 11.3841L19.1054 17.9059C21.3887 18.4748 21.2517 18.4458 20.9626 18.3279Z" fill="url(#paint4_linear_887_11235)"/>
<path d="M27.4483 9.83142L26.9501 8.36815L23.6016 7.43201L24.0997 8.89528L27.4483 9.83142Z" fill="url(#paint5_linear_887_11235)"/>
<path d="M22.3922 24.0051L18.9826 23.0843C18.8924 22.7258 20.2618 28.1639 20.2768 28.2236C20.0638 28.1502 23.5644 29.1751 23.6864 29.1444L22.3922 24.0051Z" fill="url(#paint6_linear_887_11235)"/>
<path d="M25.7917 28.2329C25.7458 28.3081 24.3701 29.7984 24.3242 29.8735C24.2173 29.9639 24.0953 29.9947 24.0193 29.9503C22.345 29.4822 22.9081 29.6581 22.7711 29.6291L22.402 30.7388L25.8876 31.704L26.7326 29.3941C26.3683 28.9774 26.08 28.6052 25.7917 28.2329Z" fill="url(#paint7_linear_887_11235)"/>
<path d="M31.1148 31.0868L32.9261 31.5839L32.6568 29.9995C32.199 30.2418 31.7111 30.3647 31.2842 30.4722L31.1148 31.0868Z" fill="url(#paint8_linear_887_11235)"/>
<path d="M40.1474 16.7378C40.0713 16.6934 40.0412 16.5739 40.0872 16.4988C40.1814 15.5854 40.2606 14.6122 40.2178 13.6697C40.1877 13.5502 40.2337 13.4751 40.3406 13.3846L42.0053 12.0122L40.7262 6.93263L39.4115 8.40758C39.3656 8.48269 39.2436 8.51341 39.1216 8.54412C38.9846 8.51507 38.9086 8.47067 38.8936 8.41091C38.5451 7.79963 38.1657 7.32322 37.6945 6.99704C37.6034 6.89288 37.5733 6.77336 37.6042 6.63849C37.5582 6.7136 38.4342 4.26881 38.465 4.13394L34.9185 3.18411C34.9343 2.98947 34.3166 5.68699 34.3316 5.74675C34.3007 5.88162 34.1938 5.9721 34.0718 6.00281C33.0201 6.20412 32.3485 6.62744 32.2265 6.65815C32.0435 6.70422 31.8915 6.61541 31.8463 6.43614C31.8162 6.31662 31.9057 6.92957 31.5018 4.55288L27.8349 8.01823L27.621 8.19918L28.3156 10.1849C28.3307 10.2447 28.2998 10.3796 28.2539 10.4547C27.4579 11.6719 27.0746 12.4675 26.86 12.9028C26.8291 13.0377 26.6002 13.1589 26.4481 13.0701C26.5241 13.1145 25.2767 12.5389 25.2007 12.4945C25.2158 12.5543 25.2158 12.5543 25.1548 12.5696C25.1548 12.5696 25.1548 12.5696 25.1698 12.6294C25.0621 12.9742 24.6772 14.2786 23.3221 18.9412C23.2612 18.9565 24.6472 19.0523 24.7232 19.0967C24.7842 19.0814 24.8753 19.1855 24.9513 19.2299C25.0273 19.2744 25.0574 19.3939 25.0115 19.469C24.9798 19.8583 24.823 21.2958 24.8658 22.2383C24.8808 22.298 24.789 22.4483 24.743 22.5234C24.8499 22.4329 23.1242 23.8207 23.0782 23.8958L24.3423 28.9156C24.2354 29.0061 25.6111 27.5158 25.657 27.4407C25.718 27.4253 25.7639 27.3502 25.7639 27.3502C25.8249 27.3349 25.8859 27.3195 25.8859 27.3195C26.0229 27.3486 26.099 27.393 26.114 27.4527C26.4625 28.064 26.8419 28.5404 27.3131 28.8666L27.3282 28.9264C27.4192 29.0305 27.4343 29.0903 27.4034 29.2251L26.5425 31.7297L30.0891 32.6795C30.0582 32.8144 30.6451 30.2518 30.6759 30.1169C30.6609 30.0571 30.7219 30.0418 30.7678 29.9667C30.8138 29.8915 30.8747 29.8762 30.9357 29.8608C31.5606 29.767 32.2013 29.4786 32.7201 29.2208C32.8421 29.1901 32.903 29.1748 33.0401 29.2038C33.1161 29.2482 33.2072 29.3524 33.2222 29.4121L33.5668 31.2954L37.4475 27.6491L36.7529 25.6633C36.7228 25.5438 36.7078 25.4841 36.8147 25.3936C37.335 24.6271 37.8403 23.8008 38.2086 22.9455C38.2545 22.8704 38.3005 22.7952 38.4224 22.7645C38.4834 22.7492 38.6054 22.7185 38.6814 22.7629L39.9288 23.3384L41.8224 16.9515L40.4214 16.7959C40.2384 16.842 40.1624 16.7976 40.1474 16.7378ZM34.35 24.362C31.5234 27.0438 28.3878 26.1811 27.4699 22.5358C26.582 19.01 28.0448 14.0025 30.7795 11.4709C33.5452 8.80449 36.6807 9.66718 37.6137 13.3723C38.4865 16.8383 37.0697 21.7706 34.35 24.362Z" fill="url(#paint9_linear_887_11235)"/>
<path d="M23.7988 22.3799L20.4502 21.4438L19.2131 22.4544L22.5617 23.3905L23.7988 22.3799Z" fill="#417FA8"/>
<path d="M20.6958 20.8735L24.1814 21.8387C24.1838 21.0755 24.2329 19.9828 24.2947 19.713C24.3707 19.7574 22.8936 19.5574 22.8176 19.513L20.7932 18.9425C20.6998 19.6015 20.6673 20.2452 20.6958 20.8735Z" fill="url(#paint10_linear_887_11235)"/>
</g>
<g clip-path="url(#clip1_887_11235)">
<path d="M11.3262 51.7551C11.3262 51.7551 11.2658 51.7181 11.3262 51.7551V51.7551Z" fill="#417FA8"/>
<path d="M14.6559 36.3687C14.9882 35.6593 15.1667 35.3536 15.5004 34.8525L12.7399 34.0355C12.442 34.4755 12.1921 34.9034 11.9545 35.3804L13.5578 35.8631C13.4974 35.8261 14.5955 36.3317 14.6559 36.3687Z" fill="url(#paint11_linear_887_11235)"/>
<path d="M18.2578 29.5696C18.3662 29.5945 15.7746 28.8392 15.5577 28.7896L12.485 31.8055L15.1851 32.5855L18.2578 29.5696Z" fill="url(#paint12_linear_887_11235)"/>
<path d="M23.9749 31.7799C24.2412 32.0257 24.4717 32.3327 24.7147 32.6886L25.5385 31.699L24.104 31.2781L23.9749 31.7799Z" fill="url(#paint13_linear_887_11235)"/>
<path d="M19.0266 29.376C19.4627 31.7169 19.3132 30.9202 19.3022 31.0794C19.5782 30.9578 20.2385 30.7394 20.3826 30.7031C20.3593 30.8132 20.8277 28.8181 20.803 28.7201C20.9718 28.7818 18.1029 27.94 18.0425 27.9031L17.82 28.8455C17.7596 28.8086 18.7603 29.1302 18.8083 29.1181C18.8811 29.204 19.0019 29.2779 19.0266 29.376Z" fill="url(#paint14_linear_887_11235)"/>
<path d="M10.4039 41.1937C10.2955 41.1689 10.2351 41.132 10.187 41.1441C10.2351 41.132 10.2955 41.1689 10.4039 41.1937C10.6208 41.2434 11.0189 41.4039 11.7299 41.5898C12.7642 37.7837 13.0938 36.6578 13.1762 36.3764L13.1638 36.3273C12.3924 36.1044 12.995 36.2656 10.4034 35.5103L8.93375 40.834C10.7416 41.3173 10.6331 41.2924 10.4039 41.1937Z" fill="url(#paint15_linear_887_11235)"/>
<path d="M15.4606 34.289L15.0558 33.0873L12.4038 32.2952L12.8086 33.4968L15.4606 34.289Z" fill="url(#paint16_linear_887_11235)"/>
<path d="M11.577 45.8519L8.87693 45.0718C8.80285 44.7776 9.92647 49.2397 9.93881 49.2887C9.76997 49.2269 12.5428 50.093 12.6389 50.0688L11.577 45.8519Z" fill="url(#paint17_linear_887_11235)"/>
<path d="M14.2944 49.339C14.2587 49.4001 13.1837 50.6094 13.148 50.6705C13.0642 50.7437 12.9681 50.7679 12.9077 50.731C11.5817 50.3349 12.0278 50.4833 11.9194 50.4585L11.6365 51.364L14.3969 52.181L15.0465 50.2967C14.7555 49.9528 14.525 49.6459 14.2944 49.339Z" fill="url(#paint18_linear_887_11235)"/>
<path d="M18.5208 51.7161L19.9553 52.137L19.7303 50.838C19.3707 51.0328 18.9863 51.1296 18.6499 51.2143L18.5208 51.7161Z" fill="url(#paint19_linear_887_11235)"/>
<path d="M25.5441 40.0405C25.4837 40.0035 25.459 39.9055 25.4947 39.8443C25.5621 39.0974 25.6171 38.3014 25.576 37.5296C25.5513 37.4315 25.587 37.3704 25.6708 37.2971L26.975 36.1866L25.9255 32.0187L24.8985 33.2159C24.8628 33.277 24.7667 33.3012 24.6706 33.3254C24.5622 33.3006 24.5018 33.2637 24.4894 33.2146C24.2095 32.7116 23.9062 32.3187 23.5314 32.048C23.4587 31.962 23.434 31.864 23.4573 31.7538C23.4216 31.8149 24.0946 29.8205 24.1179 29.7103L21.3094 28.9054C21.3204 28.7462 20.8534 30.9495 20.8657 30.9986C20.8424 31.1087 20.7586 31.182 20.6625 31.2062C19.8334 31.3628 19.3062 31.7042 19.2101 31.7284C19.0659 31.7646 18.9451 31.6908 18.9081 31.5437C18.8834 31.4456 18.9588 31.948 18.6214 29.9994L15.752 32.8077L15.5845 32.9542L16.1484 34.585C16.1608 34.6341 16.1374 34.7442 16.1017 34.8054C15.4825 35.7956 15.1859 36.4439 15.0197 36.7985C14.9964 36.9087 14.8165 37.0061 14.6957 36.9323C14.7561 36.9692 13.7664 36.4884 13.7061 36.4515C13.7184 36.5005 13.7184 36.5005 13.6704 36.5126C13.6704 36.5126 13.6704 36.5126 13.6827 36.5617C13.6003 36.8431 13.3064 37.9079 12.2721 41.714C12.2241 41.7261 13.3195 41.8152 13.3799 41.8522C13.428 41.8401 13.5007 41.9261 13.5611 41.963C13.6215 41.9999 13.6462 42.098 13.6105 42.1591C13.5885 42.4775 13.4757 43.653 13.5168 44.4248C13.5292 44.4739 13.4578 44.5961 13.4221 44.6573C13.5058 44.584 12.1535 45.7067 12.1178 45.7679L13.155 49.8867C13.0712 49.9599 14.1463 48.7506 14.182 48.6895C14.23 48.6774 14.2657 48.6163 14.2657 48.6163C14.3138 48.6042 14.3618 48.5921 14.3618 48.5921C14.4702 48.6169 14.5306 48.6538 14.543 48.7029C14.823 49.2059 15.1263 49.5988 15.501 49.8695L15.5133 49.9185C15.5861 50.0045 15.5984 50.0535 15.5751 50.1637L14.9145 52.2072L17.723 53.0121C17.6997 53.1222 18.1434 51.0291 18.1667 50.9189C18.1544 50.8699 18.2024 50.8578 18.2381 50.7966C18.2738 50.7355 18.3219 50.7234 18.3699 50.7113C18.8627 50.6394 19.3666 50.4082 19.7743 50.2012C19.8704 50.177 19.9184 50.1649 20.0269 50.1898C20.0873 50.2267 20.16 50.3127 20.1724 50.3617L20.459 51.9059L23.496 48.9512L22.932 47.3203C22.9073 47.2223 22.895 47.1732 22.9787 47.1C23.3838 46.4766 23.7765 45.8041 24.0608 45.1068C24.0965 45.0457 24.1322 44.9846 24.2283 44.9604C24.2763 44.9483 24.3724 44.9241 24.4328 44.961L25.4225 45.4418L26.8687 40.2283L25.761 40.0901C25.6168 40.1264 25.5564 40.0895 25.5441 40.0405ZM21.0241 46.2365C18.8123 48.4099 16.3291 47.6795 15.5759 44.6885C14.8474 41.7955 15.964 37.7079 18.1044 35.6568C20.2682 33.4955 22.7514 34.2259 23.5169 37.2659C24.2331 40.1099 23.1521 44.1364 21.0241 46.2365Z" fill="url(#paint20_linear_887_11235)"/>
<path d="M12.6753 44.5324L10.0233 43.7403L9.05404 44.5579L11.7061 45.3501L12.6753 44.5324Z" fill="#417FA8"/>
<path d="M10.2127 43.2754L12.9732 44.0925C12.9692 43.4678 12.9995 42.5737 13.0462 42.3534C13.1066 42.3903 11.9384 42.2152 11.878 42.1782L10.2747 41.6955C10.206 42.2343 10.1853 42.7609 10.2127 43.2754Z" fill="url(#paint21_linear_887_11235)"/>
</g>
<defs>
<linearGradient id="paint0_linear_887_11235" x1="23.4629" y1="10.2228" x2="26.8276" y2="11.2725" gradientUnits="userSpaceOnUse">
<stop stop-color="#73C7FF"/>
<stop offset="1" stop-color="#417FA8"/>
</linearGradient>
<linearGradient id="paint1_linear_887_11235" x1="24.3872" y1="4.62864" x2="29.4381" y2="6.93997" gradientUnits="userSpaceOnUse">
<stop stop-color="#73C7FF"/>
<stop offset="1" stop-color="#417FA8"/>
</linearGradient>
<linearGradient id="paint2_linear_887_11235" x1="38.4832" y1="6.33131" x2="40.0599" y2="6.64449" gradientUnits="userSpaceOnUse">
<stop stop-color="#73C7FF"/>
<stop offset="1" stop-color="#417FA8"/>
</linearGradient>
<linearGradient id="paint3_linear_887_11235" x1="30.9519" y1="2.62159" x2="34.0716" y2="3.05053" gradientUnits="userSpaceOnUse">
<stop stop-color="#73C7FF"/>
<stop offset="1" stop-color="#417FA8"/>
</linearGradient>
<linearGradient id="paint4_linear_887_11235" x1="18.9432" y1="13.1206" x2="24.5089" y2="13.8294" gradientUnits="userSpaceOnUse">
<stop stop-color="#73C7FF"/>
<stop offset="1" stop-color="#417FA8"/>
</linearGradient>
<linearGradient id="paint5_linear_887_11235" x1="24.1921" y1="7.80511" x2="26.791" y2="8.22946" gradientUnits="userSpaceOnUse">
<stop stop-color="#73C7FF"/>
<stop offset="1" stop-color="#417FA8"/>
</linearGradient>
<linearGradient id="paint6_linear_887_11235" x1="19.6957" y1="24.0119" x2="22.4582" y2="23.8683" gradientUnits="userSpaceOnUse">
<stop stop-color="#73C7FF"/>
<stop offset="1" stop-color="#417FA8"/>
</linearGradient>
<linearGradient id="paint7_linear_887_11235" x1="22.8114" y1="29.5249" x2="26.2012" y2="30.5522" gradientUnits="userSpaceOnUse">
<stop stop-color="#73C7FF"/>
<stop offset="1" stop-color="#417FA8"/>
</linearGradient>
<linearGradient id="paint8_linear_887_11235" x1="31.2713" y1="30.6043" x2="32.6796" y2="30.9078" gradientUnits="userSpaceOnUse">
<stop stop-color="#73C7FF"/>
<stop offset="1" stop-color="#417FA8"/>
</linearGradient>
<linearGradient id="paint9_linear_887_11235" x1="23.0665" y1="10.542" x2="41.3175" y2="12.1635" gradientUnits="userSpaceOnUse">
<stop stop-color="#73C7FF"/>
<stop offset="1" stop-color="#417FA8"/>
</linearGradient>
<linearGradient id="paint10_linear_887_11235" x1="20.9426" y1="19.4857" x2="24.0081" y2="20.0757" gradientUnits="userSpaceOnUse">
<stop stop-color="#73C7FF"/>
<stop offset="1" stop-color="#417FA8"/>
</linearGradient>
<linearGradient id="paint11_linear_887_11235" x1="12.3159" y1="34.5784" x2="15.0101" y2="35.3662" gradientUnits="userSpaceOnUse">
<stop stop-color="#73C7FF"/>
<stop offset="1" stop-color="#417FA8"/>
</linearGradient>
<linearGradient id="paint12_linear_887_11235" x1="13.0028" y1="30.0065" x2="17.0802" y2="31.7759" gradientUnits="userSpaceOnUse">
<stop stop-color="#73C7FF"/>
<stop offset="1" stop-color="#417FA8"/>
</linearGradient>
<linearGradient id="paint13_linear_887_11235" x1="24.1493" y1="31.5091" x2="25.4042" y2="31.7382" gradientUnits="userSpaceOnUse">
<stop stop-color="#73C7FF"/>
<stop offset="1" stop-color="#417FA8"/>
</linearGradient>
<linearGradient id="paint14_linear_887_11235" x1="18.1723" y1="28.4142" x2="20.6482" y2="28.7197" gradientUnits="userSpaceOnUse">
<stop stop-color="#73C7FF"/>
<stop offset="1" stop-color="#417FA8"/>
</linearGradient>
<linearGradient id="paint15_linear_887_11235" x1="8.76864" y1="36.9156" x2="13.1839" y2="37.417" gradientUnits="userSpaceOnUse">
<stop stop-color="#73C7FF"/>
<stop offset="1" stop-color="#417FA8"/>
</linearGradient>
<linearGradient id="paint16_linear_887_11235" x1="12.8731" y1="32.6051" x2="14.9381" y2="32.9115" gradientUnits="userSpaceOnUse">
<stop stop-color="#73C7FF"/>
<stop offset="1" stop-color="#417FA8"/>
</linearGradient>
<linearGradient id="paint17_linear_887_11235" x1="9.44731" y1="45.8366" x2="11.6261" y2="45.7068" gradientUnits="userSpaceOnUse">
<stop stop-color="#73C7FF"/>
<stop offset="1" stop-color="#417FA8"/>
</linearGradient>
<linearGradient id="paint18_linear_887_11235" x1="11.9504" y1="50.3735" x2="14.6633" y2="51.1434" gradientUnits="userSpaceOnUse">
<stop stop-color="#73C7FF"/>
<stop offset="1" stop-color="#417FA8"/>
</linearGradient>
<linearGradient id="paint19_linear_887_11235" x1="18.6408" y1="51.3224" x2="19.7626" y2="51.5455" gradientUnits="userSpaceOnUse">
<stop stop-color="#73C7FF"/>
<stop offset="1" stop-color="#417FA8"/>
</linearGradient>
<linearGradient id="paint20_linear_887_11235" x1="12.0053" y1="34.8367" x2="26.4608" y2="35.9404" gradientUnits="userSpaceOnUse">
<stop stop-color="#73C7FF"/>
<stop offset="1" stop-color="#417FA8"/>
</linearGradient>
<linearGradient id="paint21_linear_887_11235" x1="10.3969" y1="42.1414" x2="12.836" y2="42.5721" gradientUnits="userSpaceOnUse">
<stop stop-color="#73C7FF"/>
<stop offset="1" stop-color="#417FA8"/>
</linearGradient>
<clipPath id="clip0_887_11235">
<rect width="25.0293" height="29.5801" fill="white" transform="translate(14.709 6.11255) rotate(-14.1342)"/>
</clipPath>
<clipPath id="clip1_887_11235">
<rect width="19.72" height="24.2708" fill="white" transform="translate(5.37012 31.1464) rotate(-14.1342)"/>
</clipPath>
</defs>
</svg>
