<?xml version="1.0" encoding="UTF-8"?>
<svg width="22" height="22" viewBox="0 0 22 22" fill="none" xmlns="http://www.w3.org/2000/svg">
  <path fill-rule="evenodd" clip-rule="evenodd" d="M4.8125 2.75H8.02083C9.15992 2.75 10.0833 3.67341 10.0833 4.8125V17.1875C10.0833 18.3266 9.15992 19.25 8.02083 19.25H4.8125C3.67341 19.25 2.75 18.3266 2.75 17.1875V4.8125C2.75 3.67341 3.67341 2.75 4.8125 2.75ZM8.02083 17.875C8.39847 17.8701 8.7034 17.5651 8.70833 17.1875V4.8125C8.7034 4.43487 8.39847 4.12994 8.02083 4.125H4.8125C4.43487 4.12994 4.12994 4.43487 4.125 4.8125V17.1875C4.12994 17.5651 4.43487 17.8701 4.8125 17.875H8.02083Z" fill="white" />
  <path fill-rule="evenodd" clip-rule="evenodd" d="M13.9792 11.917H17.1876C18.3267 11.917 19.2501 12.8404 19.2501 13.9795V17.1878C19.2501 18.3269 18.3267 19.2503 17.1876 19.2503H13.9792C12.8402 19.2503 11.9167 18.3269 11.9167 17.1878V13.9795C11.9167 12.8404 12.8402 11.917 13.9792 11.917ZM17.1876 17.8753C17.5652 17.8704 17.8701 17.5655 17.8751 17.1878V13.9795C17.8701 13.6019 17.5652 13.2969 17.1876 13.292H13.9792C13.6016 13.2969 13.2967 13.6019 13.2917 13.9795V17.1878C13.2967 17.5655 13.6016 17.8704 13.9792 17.8753H17.1876Z" fill="white" />
  <path fill-rule="evenodd" clip-rule="evenodd" d="M13.9792 2.75H17.1876C18.3267 2.75 19.2501 3.67341 19.2501 4.8125V8.02083C19.2501 9.15992 18.3267 10.0833 17.1876 10.0833H13.9792C12.8402 10.0833 11.9167 9.15992 11.9167 8.02083V4.8125C11.9167 3.67341 12.8402 2.75 13.9792 2.75ZM17.1876 8.70833C17.5652 8.7034 17.8701 8.39847 17.8751 8.02083V4.8125C17.8701 4.43487 17.5652 4.12994 17.1876 4.125H13.9792C13.6016 4.12994 13.2967 4.43487 13.2917 4.8125V8.02083C13.2967 8.39847 13.6016 8.7034 13.9792 8.70833H17.1876Z" fill="white" />
</svg>