<?xml version="1.0" encoding="UTF-8"?>
<svg width="23" height="22" viewBox="0 0 23 22" fill="none" xmlns="http://www.w3.org/2000/svg">
  <path fill-rule="evenodd" clip-rule="evenodd" d="M15 7.75991C14.9674 9.39329 13.6338 10.7002 12 10.6999C10.3858 10.6733 9.08212 9.37403 9.05005 7.75991V6.62991C9.04985 5.9643 9.3183 5.32677 9.79458 4.8618C10.2709 4.39682 10.9146 4.14374 11.58 4.15991H12.52C13.1769 4.15725 13.8077 4.41631 14.2731 4.87981C14.7385 5.34331 15.0001 5.97309 15 6.62991V7.75991ZM11.55 5.62991C10.9978 5.62991 10.55 6.07762 10.55 6.62991L10.59 7.75991C10.59 8.56072 11.2392 9.20991 12.04 9.20991C12.8409 9.20991 13.49 8.56072 13.49 7.75991V6.62991C13.49 6.07762 13.0423 5.62991 12.49 5.62991H11.55Z" fill="white" />
  <path fill-rule="evenodd" clip-rule="evenodd" d="M22.48 14.2994L22.59 15.8594C22.7055 16.3477 22.5927 16.8619 22.2833 17.2569C21.974 17.6519 21.5017 17.8847 21 17.8894H16.51C16.1183 18.3069 15.5725 18.5455 15 18.5494H8.99997C8.39856 18.5575 7.82282 18.3061 7.41997 17.8594C7.32693 17.8697 7.23302 17.8697 7.13997 17.8594H2.54997C2.06195 17.841 1.60715 17.6074 1.30799 17.2213C1.00882 16.8353 0.896033 16.3366 0.999974 15.8594L1.14997 14.2994C1.29589 13.5551 1.94158 13.0135 2.69997 12.9994H6.99997C7.17946 12.9895 7.35923 13.0132 7.52997 13.0694C7.91363 12.5902 8.49612 12.3137 9.10997 12.3194H14.89C15.4679 12.3173 16.0185 12.5652 16.4 12.9994C16.4696 12.9896 16.5403 12.9896 16.61 12.9994H20.93C21.6884 13.0135 22.3341 13.5551 22.48 14.2994ZM16.55 16.3594H21.08C21.1106 16.3005 21.1142 16.2312 21.09 16.1694V15.9694L20.99 14.5494L20.93 14.4694H16.64H16.4C15.9772 14.471 15.5737 14.2928 15.29 13.9794C15.1908 13.8608 15.0447 13.7914 14.89 13.7894H9.10998C8.94245 13.7916 8.78468 13.8686 8.67998 13.9994C8.39452 14.3383 7.97305 14.5325 7.52998 14.5294C7.34855 14.5303 7.16863 14.4963 6.99998 14.4294H2.74998C2.68998 14.4294 2.68998 14.4494 2.68998 14.5094L2.58998 15.9294V16.1294C2.5626 16.1898 2.5626 16.259 2.58998 16.3194H7.17998C7.28642 16.3097 7.39354 16.3097 7.49998 16.3194C7.90637 16.327 8.29094 16.5047 8.55998 16.8094C8.67031 16.9385 8.8302 17.0149 8.99998 17.0194H15.04C15.2101 17.0161 15.3704 16.9396 15.48 16.8094C15.7612 16.5209 16.1471 16.3586 16.55 16.3594Z" fill="white" />
  <path fill-rule="evenodd" clip-rule="evenodd" d="M20.9701 9.26031C20.9701 10.4753 19.9851 11.4603 18.7701 11.4603C18.1849 11.463 17.6227 11.2324 17.208 10.8195C16.7932 10.4066 16.5601 9.84553 16.5601 9.26031V8.42031C16.5601 7.92966 16.755 7.45911 17.1019 7.11217C17.4489 6.76522 17.9194 6.57031 18.4101 6.57031H19.1201C20.1418 6.57031 20.9701 7.39859 20.9701 8.42031V9.26031ZM18.1626 8.21283C18.0969 8.27846 18.0601 8.36749 18.0601 8.46031V9.30031C18.1027 9.65737 18.4055 9.9262 18.7651 9.9262C19.1246 9.9262 19.4275 9.65737 19.4701 9.30031V8.46031C19.4701 8.26701 19.3134 8.11031 19.1201 8.11031H18.4101C18.3172 8.11031 18.2282 8.14719 18.1626 8.21283Z" fill="white" />
  <path fill-rule="evenodd" clip-rule="evenodd" d="M6.42201 10.8195C6.00727 11.2324 5.44512 11.463 4.85991 11.4603C4.27644 11.4603 3.71686 11.2285 3.30428 10.8159C2.8917 10.4034 2.65991 9.84379 2.65991 9.26031V8.42031C2.65991 7.39859 3.48819 6.57031 4.50991 6.57031H5.21991C6.24164 6.57031 7.06991 7.39859 7.06991 8.42031V9.26031C7.06992 9.84553 6.83676 10.4066 6.42201 10.8195ZM4.50991 8.11031C4.31661 8.11031 4.15991 8.26701 4.15991 8.46031V9.30031C4.20251 9.65737 4.50532 9.9262 4.86491 9.9262C5.2245 9.9262 5.52731 9.65737 5.56991 9.30031V8.46031C5.56991 8.26701 5.41321 8.11031 5.21991 8.11031H4.50991Z" fill="white" />
</svg>