<?xml version="1.0" encoding="UTF-8"?>
<svg width="22" height="22" viewBox="0 0 22 22" fill="none" xmlns="http://www.w3.org/2000/svg">
  <path fill-rule="evenodd" clip-rule="evenodd" d="M10.9901 1H15.0701C17.6935 1 19.8201 3.12665 19.8201 5.75V13.07C19.8385 15.0597 18.6123 16.8491 16.7501 17.55C16.5584 19.6135 14.8225 21.1889 12.7501 21.18H7.75011C5.12675 21.18 3.00011 19.0534 3.00011 16.43V8.21C2.98541 6.1755 4.50025 4.45409 6.52011 4.21C7.17538 2.29794 8.9689 1.00998 10.9901 1ZM7.71011 19.64H12.7101C13.8279 19.6408 14.8093 18.8966 15.1101 17.82H10.9901C8.36675 17.82 6.24011 15.6934 6.24011 13.07V5.79C5.18646 6.10344 4.46303 7.07073 4.46011 8.17V16.39C4.46011 18.1849 5.91518 19.64 7.71011 19.64ZM18.3201 13.07C18.3201 14.8649 16.865 16.32 15.0701 16.32H10.9901C9.19746 16.3145 7.7456 14.8626 7.74011 13.07V5.75C7.7456 3.95735 9.19746 2.50549 10.9901 2.5H15.0701C16.865 2.5 18.3201 3.95507 18.3201 5.75V13.07ZM14.7901 7.15H9.88011C9.50455 7.15 9.20011 6.84555 9.20011 6.47C9.20011 6.09445 9.50455 5.79 9.88011 5.79H14.7901C15.1657 5.79 15.4701 6.09445 15.4701 6.47C15.4701 6.84555 15.1657 7.15 14.7901 7.15ZM9.91011 11.66H13.4101C13.7857 11.66 14.0901 11.9644 14.0901 12.34C14.0901 12.7156 13.7857 13.02 13.4101 13.02H9.91011C9.53455 13.02 9.23011 12.7156 9.23011 12.34C9.23011 11.9644 9.53455 11.66 9.91011 11.66ZM16.1901 8.72H9.88011C9.61562 8.68799 9.35633 8.8111 9.21396 9.03629C9.0716 9.26148 9.0716 9.54852 9.21396 9.77371C9.35633 9.9989 9.61562 10.122 9.88011 10.09H16.1901C16.5366 10.0481 16.7972 9.75401 16.7972 9.405C16.7972 9.05599 16.5366 8.76194 16.1901 8.72Z" fill="white" />
</svg>