<svg xmlns="http://www.w3.org/2000/svg" width="36" height="44" viewBox="0 0 44 26">
<title>移动固定站2dpi</title><g id="图层_2" data-name="图层 2"><g id="移动站">
<path d="M41.62,5.71H38.85V2.27a1,1,0,0,0-.5-.88V.52a.5.5,0,1,0-1,0v.87a1,1,0,0,0-.5.88V5.71H24.52l-.64-1.2H26V3.32h.44V1.24H26V0H16.57V1.24h-.44V3.32h.44v1.2h1.86l-.64,1.2h-4l-11.12,10c-4.91,4.06-1.59,5.86-1.59,5.86H6.31a4.09,4.09,0,0,1-.07-.7A3.87,3.87,0,0,1,10,17a3.8,3.8,0,0,1,3.58,2.7,3.72,3.72,0,0,0-3-1.55,3.95,3.95,0,0,0,0,7.89,3.87,3.87,0,0,0,3.79-3.94,4,4,0,0,0,0-.45H31.15a4.11,4.11,0,0,1-.07-.7,3.79,3.79,0,1,1,7.58,0,3.8,3.8,0,0,0-3.6-2.78,3.95,3.95,0,1,0,3.79,3.94,4,4,0,0,0,0-.45H44V9.9Zm-31,18.21a1.87,1.87,0,1,1,1.79-1.87A1.83,1.83,0,0,1,10.62,23.92ZM16.41,13.6H10l4-4.18h2.41Zm8.84,0H18.82V9.42h6.43Zm8.84,0H27.66V9.42h6.43Zm1,10.33a1.87,1.87,0,1,1,1.79-1.87A1.83,1.83,0,0,1,35.06,23.92Zm4.65-10.29H36.49v-4l3.21.8Z" fill="#079e00"/></g></g></svg>