<svg width="38" height="35" viewBox="0 0 38 35" fill="none" xmlns="http://www.w3.org/2000/svg">
<g clip-path="url(#clip0_887_11290)">
<path d="M11.3999 17.582C11.3999 18.1571 11.3999 9.28384 11.3999 9.20168L7.75825 11.42C6.80825 11.9951 5.85825 11.5022 5.85825 10.2698C5.85825 9.28384 6.49159 8.13361 7.36242 7.64065L11.4791 5.17586C12.2708 4.6829 12.9833 5.01154 13.2208 5.58666L17.0999 3.28619V0.985718L0.395752 10.927L1.18742 11.42L11.3999 17.582Z" fill="url(#paint0_linear_887_11290)"/>
<path d="M37.5249 12.981L33.6458 10.5984V15.2815L37.5249 12.981Z" fill="url(#paint1_linear_887_11290)"/>
<path d="M17.8125 0.985718V2.71107L19.2375 1.88947L17.8125 0.985718Z" fill="url(#paint2_linear_887_11290)"/>
<path d="M14.8042 19.6359L14.725 9.11951L12.1917 7.55847V18.0749L14.8042 19.6359Z" fill="url(#paint3_linear_887_11290)"/>
<path d="M11.5582 6.49038L12.4291 5.99742C12.3499 5.66878 12.1124 5.75094 11.7957 5.91526L7.67907 8.38005C7.1249 8.70869 6.6499 9.61245 6.6499 10.2697C6.6499 10.7627 6.8874 10.927 7.28324 10.6805L11.3999 8.21573V6.90118C11.3207 6.6547 11.4791 6.49038 11.5582 6.49038Z" fill="url(#paint4_linear_887_11290)"/>
<path d="M15.1999 8.38004C22.1666 4.1899 23.5916 3.3683 23.9082 3.20398C23.9082 3.20398 23.9874 3.20398 24.0666 3.12182V-0.000244141L12.5874 6.81901L15.1999 8.38004Z" fill="url(#paint5_linear_887_11290)"/>
<path d="M15.5957 20.1288L16.704 20.7861V10.1054C16.704 9.94104 16.7832 9.77672 16.9415 9.69456L27.4707 3.36827V2.05371L15.5957 9.11944V20.1288Z" fill="url(#paint6_linear_887_11290)"/>
<path d="M32.7749 5.25793C31.7457 5.91521 21.4541 12.0772 20.8999 12.4058V22.9223L32.7749 15.8565V5.25793ZM31.2707 14.8706L22.9582 19.8823C22.7999 19.9645 22.6416 19.9645 22.5624 19.8823C22.4041 19.8002 22.3249 19.6359 22.3249 19.4716V14.2955C22.3249 14.1312 22.4041 13.9669 22.5624 13.8847L30.8749 8.95512C31.0332 8.87296 31.1916 8.87296 31.2707 8.95512C31.4291 9.03728 31.5082 9.2016 31.5082 9.36592V14.542C31.5082 14.6241 31.4291 14.7885 31.2707 14.8706Z" fill="url(#paint7_linear_887_11290)"/>
<path d="M29.3708 3.20398C20.8999 8.21572 18.6041 9.61243 18.0499 9.94107C18.0499 9.94107 17.9708 9.94107 17.9708 10.0232C17.9708 10.0232 17.9708 10.0232 18.0499 10.0232C17.9708 10.1054 17.8916 10.1054 17.9708 10.1054L20.5833 11.6664C20.6624 11.5843 26.9166 7.88708 29.4499 6.32605L29.3708 3.20398ZM17.9708 10.0232C17.9708 10.1054 17.9708 10.1054 17.9708 10.0232C17.9708 10.1054 17.9708 10.1054 17.9708 10.0232Z" fill="url(#paint8_linear_887_11290)"/>
<path d="M38 13.7205C38.3958 13.474 21.375 23.6618 21.0583 23.9083C21.0583 23.7439 21.0583 34.8355 21.0583 34.9998L38 24.812V13.7205ZM31.7458 22.5937L27.6292 25.0585C26.6792 25.6336 25.7292 25.1407 25.7292 23.9083C25.7292 22.9223 26.3625 21.7721 27.2334 21.2792L31.35 18.8144C32.3 18.2392 33.25 18.8144 33.25 19.9646C33.25 20.9505 32.6167 22.1007 31.7458 22.5937Z" fill="url(#paint9_linear_887_11290)"/>
<path d="M23.1167 14.6241V18.8143L30.6375 14.2955V10.1053L23.1167 14.6241Z" fill="#56ACDD"/>
<path d="M31.7457 19.5537L27.629 22.0185C27.0749 22.3472 26.5999 23.2509 26.5999 23.9082C26.5999 24.4012 26.8374 24.5655 27.2332 24.319L31.3499 21.8542C31.904 21.5256 32.379 20.6218 32.379 19.9645C32.4582 19.3894 32.1415 19.3073 31.7457 19.5537Z" fill="url(#paint10_linear_887_11290)"/>
<path d="M20.1874 23.9082C20.1874 23.9082 20.1874 23.9903 20.1874 23.9082C20.1874 23.9082 20.1874 23.826 20.1874 23.9082C20.1874 23.826 20.1874 23.826 20.1874 23.9082C20.1874 23.826 20.1874 23.826 20.1874 23.9082C20.1874 23.826 20.1874 23.826 20.1874 23.9082C20.2666 23.9082 0.158268 11.7485 0.0791016 11.6664V22.7579L20.2666 34.9176C20.2666 26.7838 20.1874 24.4833 20.1874 23.9082C20.1874 24.0725 20.1874 24.0725 20.1874 23.9082Z" fill="url(#paint11_linear_887_11290)"/>
<path d="M18.05 10.0233C18.1292 9.94113 18.1292 9.94113 18.05 10.0233V10.0233Z" fill="black"/>
<path d="M20.1875 22.758C20.1875 13.9669 20.1875 23.3331 20.1875 12.4059C20.2667 12.488 17.6542 10.927 17.575 10.8448V21.2791C17.4167 21.197 20.0292 22.758 20.1875 22.758Z" fill="url(#paint12_linear_887_11290)"/>
</g>
<defs>
<linearGradient id="paint0_linear_887_11290" x1="2.95385" y1="3.56106" x2="15.6128" y2="9.28107" gradientUnits="userSpaceOnUse">
<stop stop-color="#73C7FF"/>
<stop offset="1" stop-color="#417FA8"/>
</linearGradient>
<linearGradient id="paint1_linear_887_11290" x1="34.2398" y1="11.3239" x2="37.3485" y2="12.4818" gradientUnits="userSpaceOnUse">
<stop stop-color="#73C7FF"/>
<stop offset="1" stop-color="#417FA8"/>
</linearGradient>
<linearGradient id="paint2_linear_887_11290" x1="18.0307" y1="1.25302" x2="19.1735" y2="1.67743" gradientUnits="userSpaceOnUse">
<stop stop-color="#73C7FF"/>
<stop offset="1" stop-color="#417FA8"/>
</linearGradient>
<linearGradient id="paint3_linear_887_11290" x1="12.5917" y1="9.42959" x2="14.9535" y2="9.6593" gradientUnits="userSpaceOnUse">
<stop stop-color="#73C7FF"/>
<stop offset="1" stop-color="#417FA8"/>
</linearGradient>
<linearGradient id="paint4_linear_887_11290" x1="7.53493" y1="6.54957" x2="11.695" y2="8.7021" gradientUnits="userSpaceOnUse">
<stop stop-color="#73C7FF"/>
<stop offset="1" stop-color="#417FA8"/>
</linearGradient>
<linearGradient id="paint5_linear_887_11290" x1="14.3453" y1="1.29808" x2="21.9397" y2="5.97571" gradientUnits="userSpaceOnUse">
<stop stop-color="#73C7FF"/>
<stop offset="1" stop-color="#417FA8"/>
</linearGradient>
<linearGradient id="paint6_linear_887_11290" x1="17.4143" y1="4.95585" x2="27.4366" y2="7.81273" gradientUnits="userSpaceOnUse">
<stop stop-color="#73C7FF"/>
<stop offset="1" stop-color="#417FA8"/>
</linearGradient>
<linearGradient id="paint7_linear_887_11290" x1="22.7185" y1="7.9946" x2="32.6478" y2="10.9961" gradientUnits="userSpaceOnUse">
<stop stop-color="#73C7FF"/>
<stop offset="1" stop-color="#417FA8"/>
</linearGradient>
<linearGradient id="paint8_linear_887_11290" x1="19.7009" y1="4.51503" x2="27.3458" y2="9.19138" gradientUnits="userSpaceOnUse">
<stop stop-color="#73C7FF"/>
<stop offset="1" stop-color="#417FA8"/>
</linearGradient>
<linearGradient id="paint9_linear_887_11290" x1="23.6539" y1="17.0135" x2="37.3627" y2="21.9222" gradientUnits="userSpaceOnUse">
<stop stop-color="#73C7FF"/>
<stop offset="1" stop-color="#417FA8"/>
</linearGradient>
<linearGradient id="paint10_linear_887_11290" x1="27.4868" y1="20.1988" x2="31.6474" y2="22.3617" gradientUnits="userSpaceOnUse">
<stop stop-color="#73C7FF"/>
<stop offset="1" stop-color="#417FA8"/>
</linearGradient>
<linearGradient id="paint11_linear_887_11290" x1="3.17064" y1="15.2686" x2="19.1564" y2="21.5096" gradientUnits="userSpaceOnUse">
<stop stop-color="#73C7FF"/>
<stop offset="1" stop-color="#417FA8"/>
</linearGradient>
<linearGradient id="paint12_linear_887_11290" x1="17.9695" y1="12.6905" x2="20.3383" y2="12.9249" gradientUnits="userSpaceOnUse">
<stop stop-color="#73C7FF"/>
<stop offset="1" stop-color="#417FA8"/>
</linearGradient>
<clipPath id="clip0_887_11290">
<rect width="38" height="35" fill="white" transform="translate(0 -0.000244141)"/>
</clipPath>
</defs>
</svg>
