<?xml version="1.0" encoding="UTF-8"?>
<svg viewBox="0 0 32 32" fill="none" xmlns="http://www.w3.org/2000/svg">
  <path d="M16.0002 1.3335C7.89995 1.3335 1.3335 7.89995 1.3335 16.0002C1.3335 24.1004 7.89995 30.6668 16.0002 30.6668C24.1004 30.6668 30.6668 24.1004 30.6668 16.0002C30.6668 7.89995 24.1004 1.3335 16.0002 1.3335ZM22.1425 16.9744C22.1423 16.9742 22.142 16.9741 22.1418 16.9742L13.8089 22.4739C13.6331 22.5898 13.4291 22.656 13.2187 22.6653C13.0083 22.6747 12.7993 22.6269 12.6138 22.5271C12.4283 22.4272 12.2734 22.2791 12.1653 22.0983C12.0573 21.9175 12.0002 21.7108 12.0002 21.5002V10.5012C12.0002 10.2905 12.0572 10.0838 12.1653 9.9029C12.2734 9.72203 12.4284 9.5738 12.6139 9.47395C12.7994 9.3741 13.0085 9.32634 13.219 9.33576C13.4295 9.34518 13.6335 9.41143 13.8093 9.52745L22.1427 15.0275C22.3037 15.1338 22.4359 15.2784 22.5274 15.4483C22.6189 15.6182 22.6667 15.8082 22.6667 16.0012C22.6667 16.1942 22.6189 16.3842 22.5274 16.5541C22.436 16.7239 22.304 16.8684 22.1431 16.9746C22.1429 16.9748 22.1426 16.9747 22.1425 16.9744Z" fill="url(#paint0_linear_2246_11477)" />
  <defs>
    <linearGradient id="paint0_linear_2246_11477" x1="18.7829" y1="46.2502" x2="1.61008" y2="3.9314" gradientUnits="userSpaceOnUse">
      <stop stop-color="#1869B5" />
      <stop offset="1" stop-color="#28B0FE" />
    </linearGradient>
  </defs>
</svg>