<svg width="38" height="37" viewBox="0 0 38 37" fill="none" xmlns="http://www.w3.org/2000/svg">
<g clip-path="url(#clip0_887_11276)">
<path d="M18.6042 24.4056V16.7397C18.05 16.7397 17.4167 16.6615 16.9417 16.505V21.1985L18.6042 24.4056Z" fill="url(#paint0_linear_887_11276)"/>
<path d="M19 15.8792C23.3542 15.8792 27.0751 12.3592 27.0751 7.90039C27.0751 3.59806 23.4334 -0.000244141 19 -0.000244141C14.5667 -0.000244141 10.925 3.59806 10.925 7.97861C10.925 12.4374 14.6459 15.8792 19 15.8792Z" fill="url(#paint1_linear_887_11276)"/>
<path d="M19.3958 24.4056L21.0583 21.1985V16.505C21.0583 16.505 21.0583 16.505 20.9791 16.505C20.4249 16.6615 19.8708 16.6615 19.3958 16.7397V24.4056Z" fill="url(#paint2_linear_887_11276)"/>
<path d="M37.9999 23.9363L20.1083 34.1836C19.3166 34.653 18.0499 34.653 17.2583 34.1836C4.67077 26.987 1.10827 24.9532 0.237435 24.4838C0.158268 24.4056 0.0791016 24.4056 0.0791016 24.4056V26.5959C0.0791016 26.6741 0.158268 26.8306 0.395768 26.9088L17.8124 36.8433C18.3666 37.1562 19.2374 37.1562 19.7916 36.8433C19.9499 36.765 20.0291 36.6868 20.1083 36.6868C20.5041 36.4521 23.2749 34.8094 37.7624 26.5177C37.9208 26.4395 38.0791 26.283 38.0791 26.2048L37.9999 23.9363ZM20.0291 36.6086C19.9499 36.6086 19.9499 36.6086 20.0291 36.6086V36.6086Z" fill="url(#paint3_linear_887_11276)"/>
<path d="M0.316667 23.5452C12.825 30.7418 16.5458 32.7756 17.4167 33.3232C17.4167 33.3232 17.4167 33.3232 17.4958 33.3232C17.4958 33.3232 17.575 33.4014 17.6542 33.4014C18.1292 33.6361 19.0792 33.7143 19.6333 33.4014L37.6042 23.0758C37.6833 22.9976 37.7625 22.9976 37.8417 22.9194C37.9208 22.8412 37.9208 22.8412 37.9208 22.7629C37.9208 22.6847 37.8417 22.5283 37.6042 22.45L24.3042 14.8623C23.5125 15.4099 22.6417 15.8792 21.7708 16.1921V21.2767C21.7708 21.3549 21.7708 21.4331 21.6917 21.4331C20.7417 23.3105 19.3167 26.1266 19.1583 26.283C19 26.5177 18.6042 26.5177 18.4458 26.283C18.525 26.3612 17.575 24.6403 15.9917 21.4331C15.9917 21.3549 15.9125 21.2767 15.9125 21.2767V16.1921C15.1208 15.8792 14.25 15.4881 13.6167 15.0188L0.0791667 22.8412C0.0791667 22.9976 0 23.1541 0 23.2323C0 23.3105 0.0791667 23.467 0.316667 23.5452Z" fill="url(#paint4_linear_887_11276)"/>
</g>
<defs>
<linearGradient id="paint0_linear_887_11276" x1="17.1962" y1="17.729" x2="18.6999" y2="17.8713" gradientUnits="userSpaceOnUse">
<stop stop-color="#73C7FF"/>
<stop offset="1" stop-color="#417FA8"/>
</linearGradient>
<linearGradient id="paint1_linear_887_11276" x1="13.3983" y1="2.4599" x2="25.587" y2="8.03404" gradientUnits="userSpaceOnUse">
<stop stop-color="#73C7FF"/>
<stop offset="1" stop-color="#417FA8"/>
</linearGradient>
<linearGradient id="paint2_linear_887_11276" x1="19.6503" y1="17.729" x2="21.154" y2="17.8713" gradientUnits="userSpaceOnUse">
<stop stop-color="#73C7FF"/>
<stop offset="1" stop-color="#417FA8"/>
</linearGradient>
<linearGradient id="paint3_linear_887_11276" x1="5.89847" y1="25.9723" x2="18.7869" y2="42.7301" gradientUnits="userSpaceOnUse">
<stop stop-color="#73C7FF"/>
<stop offset="1" stop-color="#417FA8"/>
</linearGradient>
<linearGradient id="paint4_linear_887_11276" x1="5.80725" y1="17.7665" x2="24.7438" y2="34.9917" gradientUnits="userSpaceOnUse">
<stop stop-color="#73C7FF"/>
<stop offset="1" stop-color="#417FA8"/>
</linearGradient>
<clipPath id="clip0_887_11276">
<rect width="38" height="37" fill="white" transform="translate(0 -0.000244141)"/>
</clipPath>
</defs>
</svg>
